<svg width="69" height="20" viewBox="0 0 69 20" fill="none" xmlns="http://www.w3.org/2000/svg">
<g id="logo-couchbase-2 1" clip-path="url(#clip0_1619_3706)">
<path id="Vector" d="M22.2571 13.7973C19.8863 13.7973 18.6934 12.0916 18.6934 10.1981C18.6934 8.30455 19.932 6.64453 22.2799 6.64453C23.1785 6.64453 23.8232 6.84252 24.3714 7.19279L23.6937 8.30201C23.2668 8.02541 22.7654 7.88633 22.2571 7.90351C20.9829 7.90351 20.3026 8.91881 20.3026 10.1829C20.3026 11.452 20.9575 12.5561 22.2774 12.5561C22.841 12.57 23.3913 12.3839 23.8308 12.0307L24.4501 13.0968C24.0998 13.4115 23.2698 13.8202 22.252 13.8202L22.2571 13.7973ZM27.293 9.54322C26.5315 9.54322 26.2878 10.1854 26.2878 11.122C26.2878 12.0586 26.5924 12.7211 27.3539 12.7211C28.1153 12.7211 28.3819 12.0865 28.3819 11.155C28.3819 10.2235 28.0671 9.54322 27.2955 9.54322H27.293ZM27.3183 13.7973C25.5416 13.7973 24.7699 12.4647 24.7699 11.1575C24.7699 9.85035 25.5416 8.45684 27.3183 8.45684C29.0951 8.45684 29.8997 9.77674 29.8997 11.0865C29.8997 12.3962 29.1053 13.777 27.3183 13.777V13.7973ZM32.1334 8.60914V11.8581C32.1334 12.3607 32.3111 12.6069 32.7883 12.6069C33.3035 12.6069 33.6868 12.117 33.7934 11.9977V8.60914H35.2199V12.1627C35.2129 12.6612 35.2597 13.1591 35.3595 13.6476H33.9457C33.8886 13.4257 33.8538 13.1987 33.8416 12.9699C33.5726 13.3201 33.0472 13.7643 32.2045 13.7643C31.0826 13.7643 30.6866 13.0536 30.6866 12.1145V8.59645H32.1334V8.60914ZM38.7329 13.7973C37.0957 13.7973 36.0931 12.7313 36.0931 11.1449C36.0931 9.43915 37.2277 8.47969 38.7836 8.47969C39.3289 8.46069 39.8682 8.59903 40.337 8.87819L39.8801 9.8605C39.5664 9.66141 39.2008 9.55982 38.8293 9.5686C38.0348 9.5686 37.6109 10.1879 37.6109 11.1119C37.6109 12.0358 38.0069 12.7008 38.8623 12.7008C39.4461 12.7008 39.7862 12.4901 39.9385 12.3962L40.37 13.3531C40.1365 13.5054 39.6695 13.7973 38.7329 13.7973ZM44.2028 13.6806V10.4215C44.2028 9.91888 44.0251 9.67267 43.5479 9.67267C43.0327 9.67267 42.6341 10.1803 42.5326 10.2818V13.6704H41.1061V6.19019H42.5326V9.20563C42.7864 8.9518 43.2814 8.48223 44.1114 8.48223C45.2333 8.48223 45.6293 9.19294 45.6293 10.1321V13.673H44.2028V13.6806ZM48.2234 12.5714C48.4411 12.6465 48.6709 12.6809 48.9011 12.6729C49.6626 12.6729 50.0941 12.1348 50.0941 11.0941C50.0941 10.16 49.7793 9.57114 49.0788 9.57114C48.9225 9.5746 48.7685 9.60941 48.6259 9.67351C48.4833 9.7376 48.3551 9.82967 48.2488 9.94426L48.2234 12.5714ZM48.2234 6.22572V9.03049C48.553 8.70201 48.9968 8.51373 49.462 8.50507C50.7236 8.50507 51.6119 9.36808 51.6119 11.1195C51.6119 12.8709 50.4443 13.8202 48.9011 13.8202C47.7436 13.8202 47.0431 13.5283 46.7867 13.414V6.19019H48.2234V6.22572ZM54.9904 11.452H54.8127C54.0309 11.452 53.4801 11.6855 53.4801 12.2591C53.4801 12.6221 53.772 12.7744 54.0893 12.7744C54.5969 12.7744 54.8508 12.5206 54.9878 12.3531L54.9904 11.452ZM55.1427 13.6856C55.0964 13.5097 55.0691 13.3293 55.0614 13.1475C54.8406 13.4166 54.3609 13.8126 53.6476 13.8126C52.7846 13.8126 52.1171 13.2973 52.1171 12.3861C52.1171 11.0662 53.4725 10.6093 54.8152 10.6093H54.9929V10.3555C54.9929 9.93411 54.8152 9.67774 54.1857 9.67774C53.5309 9.67774 53.0867 10.0179 52.9014 10.1448L52.282 9.28178C52.5866 9.02795 53.2643 8.5203 54.3507 8.5203C55.7518 8.5203 56.4194 9.05841 56.4194 10.4138V12.1906C56.4123 12.7001 56.4591 13.2089 56.559 13.7085L55.1427 13.6856ZM58.9881 13.8024C58.0743 13.8024 57.4652 13.5333 57.1758 13.2948L57.6834 12.2795C57.8814 12.4191 58.3738 12.7008 58.9348 12.7008C59.4602 12.7008 59.7521 12.5485 59.7521 12.2693C59.7521 11.9393 59.1785 11.8479 58.483 11.4977C57.7824 11.1601 57.3738 10.7743 57.3738 9.97472C57.3738 9.01526 58.1353 8.40862 59.2902 8.40862C59.8613 8.39636 60.4257 8.53374 60.9273 8.80712L60.4374 9.77674C60.2395 9.65998 59.841 9.46199 59.3612 9.46199C58.8815 9.46199 58.6708 9.62444 58.6708 9.8935C58.6708 10.2235 59.1379 10.2996 59.7217 10.5357C60.5161 10.8656 61.0923 11.2362 61.0923 12.0789C61.0669 13.1653 60.2978 13.7288 59.0465 13.7288L58.9881 13.8024ZM64.8667 10.5027C64.854 9.94426 64.6332 9.48738 64.0291 9.48738C63.4707 9.48738 63.1407 9.85034 63.0468 10.5027H64.8667ZM64.3286 12.7236C65.019 12.7236 65.3947 12.5028 65.6485 12.3734L66.1054 13.2871C65.7652 13.475 65.2525 13.777 64.2017 13.777C62.496 13.777 61.5264 12.711 61.5264 11.0865C61.5264 9.46199 62.6356 8.45684 64.0494 8.45684C65.6485 8.45684 66.4226 9.56606 66.2475 11.4596H63.0569C63.1153 12.2211 63.5138 12.7211 64.3311 12.7211L64.3286 12.7236Z" fill="black"/>
<path id="Vector_2" d="M9.58049 0.892797C7.16463 0.89347 4.84791 1.85346 3.13964 3.56174C1.43137 5.27001 0.471376 7.58673 0.470703 10.0026C0.471376 12.4184 1.43137 14.7352 3.13964 16.4434C4.84791 18.1517 7.16463 19.1117 9.58049 19.1124C11.9972 19.1124 14.315 18.1523 16.0239 16.4434C17.7328 14.7345 18.6928 12.4168 18.6928 10C18.6921 7.58419 17.7321 5.26747 16.0239 3.5592C14.3156 1.85093 11.9989 0.890932 9.58303 0.890259L9.58049 0.892797ZM15.7307 11.5991C15.7307 12.1499 15.4134 12.6322 14.7915 12.7414C13.7178 12.9343 11.4613 13.046 9.57541 13.046C7.68949 13.046 5.43299 12.9368 4.3593 12.7414C3.73997 12.6322 3.42015 12.1499 3.42015 11.5991V8.04559C3.42015 7.49479 3.84658 6.98714 4.3593 6.90338C4.90197 6.8304 5.44893 6.79394 5.99648 6.79423C6.21731 6.79423 6.39498 6.95922 6.39498 7.22066V9.70815L9.5881 9.63962L12.7812 9.70815V7.22066C12.7812 6.95922 12.9589 6.79423 13.1797 6.79423C13.7273 6.79394 14.2742 6.8304 14.8169 6.90338C15.0808 6.95663 15.3181 7.09941 15.4888 7.30755C15.6595 7.5157 15.753 7.77642 15.7535 8.04559L15.7281 11.5991H15.7307Z" fill="#ED2226"/>
</g>
<defs>
<clipPath id="clip0_1619_3706">
<rect width="68.2667" height="18.7032" fill="white" transform="translate(0.201172 0.64856)"/>
</clipPath>
</defs>
</svg>
