<svg width="54" height="54" viewBox="0 0 54 54" fill="none" xmlns="http://www.w3.org/2000/svg">
<g id="layer1">
<g id="g3460">
<path id="path3462" d="M27.0023 3.21542C20.4366 3.21542 14.4907 5.87857 10.1857 10.1868C5.87912 14.4852 3.21762 20.4344 3.21762 27.0034C3.21762 33.5674 5.87912 39.5125 10.1857 43.8126C14.4907 48.1151 20.4366 50.7831 27.0023 50.7831C33.5696 50.7831 39.5188 48.1151 43.8172 43.8126C48.1222 39.5125 50.7779 33.5674 50.7779 27.0034C50.7779 20.4344 48.1222 14.4852 43.8172 10.1868C39.5188 5.87857 33.5696 3.21542 27.0023 3.21542ZM27.0023 0.333427C41.7278 0.333427 53.6673 12.2745 53.6673 27.0034C53.6673 41.7273 41.7278 53.6667 27.0023 53.6667C12.2784 53.6667 0.333984 41.7273 0.333984 27.0034C0.333984 12.2745 12.2784 0.333427 27.0023 0.333427Z" fill="white"/>
</g>
<g id="g3464">
<path id="path3466" d="M14.3907 26.7861C14.3907 25.232 13.3596 24.3492 11.8997 24.3492H11.0063V29.2246H11.8743C13.2317 29.2246 14.3907 28.4869 14.3907 26.7861ZM30.2835 28.5402L23.7015 33.723L17.6859 28.9869C16.8178 31.0722 14.7203 32.5206 12.3047 32.5206H7.15625V21.0516H12.3047C15.0039 21.0516 16.949 22.768 17.6842 24.5967L23.7015 19.8655L25.9302 21.6196L20.4154 25.9541L21.4752 26.7836L26.9884 22.4516L29.2204 24.2008L23.7064 28.5402L24.7646 29.3713L30.2835 25.0311V21.0516H34.2844V29.173H38.2754V32.5345H30.2835V28.5402ZM43.3435 29.1746H47.3329V32.5345H39.3385V21.0516H43.3435V29.1746Z" fill="white"/>
</g>
</g>
</svg>
