<svg width="130" height="36" viewBox="0 0 130 36" fill="none" xmlns="http://www.w3.org/2000/svg">
<g id="logo-tassta 1" clip-path="url(#clip0_1136_26736)">
<path id="Vector" d="M27.9471 0.584961H7.00728C3.15237 0.584961 0.0273438 3.70998 0.0273438 7.56489V28.5047C0.0273438 32.3596 3.15237 35.4846 7.00728 35.4846H27.9471C31.802 35.4846 34.927 32.3596 34.927 28.5047V7.56489C34.927 3.70998 31.802 0.584961 27.9471 0.584961Z" fill="url(#paint0_linear_1136_26736)"/>
<path id="Vector_2" d="M13.0307 21.0533C13.0467 21.0545 13.0627 21.0525 13.0778 21.0474C13.093 21.0423 13.1069 21.0343 13.1189 21.0237C13.1309 21.0131 13.1407 21.0003 13.1476 20.9859C13.1546 20.9715 13.1586 20.9559 13.1594 20.9399V15.1269C13.1586 15.111 13.1546 15.0953 13.1476 15.081C13.1407 15.0666 13.1309 15.0537 13.1189 15.0432C13.1069 15.0326 13.093 15.0245 13.0778 15.0194C13.0627 15.0143 13.0467 15.0123 13.0307 15.0135H7.24393C7.22799 15.0123 7.21198 15.0143 7.19683 15.0194C7.18168 15.0245 7.16771 15.0326 7.15572 15.0432C7.14373 15.0537 7.13397 15.0666 7.12702 15.081C7.12007 15.0953 7.11606 15.111 7.11523 15.1269V20.9421C7.11606 20.9581 7.12007 20.9737 7.12702 20.9881C7.13397 21.0025 7.14373 21.0153 7.15572 21.0259C7.16771 21.0364 7.18168 21.0445 7.19683 21.0496C7.21198 21.0547 7.22799 21.0567 7.24393 21.0555L13.0307 21.0533Z" fill="#CECECD"/>
<path id="Vector_3" d="M27.7019 21.0535C27.7179 21.0546 27.7339 21.0526 27.749 21.0475C27.7642 21.0425 27.7781 21.0344 27.7901 21.0238C27.8021 21.0133 27.8119 21.0004 27.8188 20.986C27.8258 20.9716 27.8298 20.956 27.8306 20.94V15.1271C27.8298 15.1111 27.8258 15.0955 27.8188 15.0811C27.8119 15.0667 27.8021 15.0538 27.7901 15.0433C27.7781 15.0327 27.7642 15.0246 27.749 15.0196C27.7339 15.0145 27.7179 15.0125 27.7019 15.0136H21.9217C21.9057 15.0125 21.8897 15.0145 21.8746 15.0196C21.8594 15.0246 21.8454 15.0327 21.8335 15.0433C21.8215 15.0538 21.8117 15.0667 21.8048 15.0811C21.7978 15.0955 21.7938 15.1111 21.793 15.1271V20.9422C21.7938 20.9582 21.7978 20.9738 21.8048 20.9882C21.8117 21.0026 21.8215 21.0154 21.8335 21.026C21.8454 21.0366 21.8594 21.0446 21.8746 21.0497C21.8897 21.0548 21.9057 21.0568 21.9217 21.0556L27.7019 21.0535Z" fill="#CECECD"/>
<path id="Vector_4" d="M20.3725 28.3961C20.3885 28.3973 20.4046 28.3952 20.4198 28.3899C20.4349 28.3847 20.4489 28.3764 20.4607 28.3656C20.4726 28.3547 20.4821 28.3416 20.4887 28.327C20.4953 28.3123 20.4988 28.2965 20.499 28.2805V22.4675C20.4988 22.4514 20.4953 22.4356 20.4887 22.421C20.4821 22.4064 20.4726 22.3932 20.4607 22.3824C20.4489 22.3716 20.4349 22.3633 20.4198 22.358C20.4046 22.3528 20.3885 22.3507 20.3725 22.3519H14.5857C14.5696 22.3507 14.5534 22.3528 14.5381 22.358C14.5229 22.3632 14.5088 22.3715 14.4968 22.3823C14.4847 22.3931 14.475 22.4062 14.4682 22.4208C14.4614 22.4355 14.4576 22.4513 14.457 22.4675V28.2805C14.4576 28.2966 14.4614 28.3125 14.4682 28.3271C14.475 28.3418 14.4847 28.3549 14.4968 28.3657C14.5088 28.3765 14.5229 28.3847 14.5381 28.39C14.5534 28.3952 14.5696 28.3973 14.5857 28.3961H20.3725Z" fill="#CECECD"/>
<path id="Vector_5" d="M27.8372 22.467C27.8353 22.4512 27.8303 22.4359 27.8224 22.4221C27.8146 22.4082 27.8041 22.3961 27.7915 22.3863C27.7789 22.3766 27.7645 22.3694 27.7491 22.3653C27.7337 22.3612 27.7177 22.3602 27.7019 22.3623H21.9217C21.9055 22.3611 21.8894 22.3632 21.8741 22.3684C21.8588 22.3736 21.8447 22.3819 21.8327 22.3927C21.8207 22.4035 21.811 22.4166 21.8041 22.4312C21.7973 22.4459 21.7935 22.4618 21.793 22.4779V28.2909C21.7935 28.307 21.7973 28.3229 21.8041 28.3375C21.811 28.3522 21.8207 28.3653 21.8327 28.3761C21.8447 28.3869 21.8588 28.3951 21.8741 28.4004C21.8894 28.4056 21.9055 28.4077 21.9217 28.4065H27.4947C27.5374 28.4094 27.5802 28.4038 27.6206 28.39C27.6611 28.3762 27.6983 28.3544 27.7302 28.3259C27.7621 28.2975 27.788 28.2629 27.8064 28.2243C27.8248 28.1857 27.8352 28.1438 27.8372 28.1011V22.467Z" fill="#AAD2A2"/>
<path id="Vector_6" d="M13.0307 28.3956C13.0468 28.3968 13.063 28.3947 13.0783 28.3895C13.0936 28.3842 13.1077 28.376 13.1197 28.3652C13.1317 28.3544 13.1414 28.3413 13.1483 28.3266C13.1551 28.312 13.1589 28.2961 13.1594 28.28V22.467C13.1589 22.4509 13.1551 22.435 13.1483 22.4203C13.1414 22.4057 13.1317 22.3926 13.1197 22.3818C13.1077 22.371 13.0936 22.3627 13.0783 22.3575C13.063 22.3523 13.0468 22.3502 13.0307 22.3514H7.24393C7.22782 22.3502 7.21163 22.3523 7.19634 22.3575C7.18106 22.3627 7.16698 22.371 7.15496 22.3818C7.14295 22.3926 7.13323 22.4057 7.1264 22.4203C7.11958 22.435 7.11578 22.4509 7.11523 22.467V28.0902C7.11717 28.1329 7.12762 28.1748 7.14598 28.2134C7.16434 28.252 7.19024 28.2866 7.22215 28.315C7.25405 28.3435 7.29133 28.3653 7.33178 28.3791C7.37223 28.3929 7.41504 28.3985 7.45769 28.3956H13.0307Z" fill="#AAD2A2"/>
<path id="Vector_7" d="M27.8369 13.6027C27.8364 13.6188 27.8326 13.6347 27.8257 13.6493C27.8189 13.664 27.8092 13.6771 27.7972 13.6879C27.7852 13.6987 27.7711 13.7069 27.7558 13.7122C27.7405 13.7174 27.7243 13.7195 27.7082 13.7183H20.6258C20.6098 13.7171 20.5938 13.7191 20.5787 13.7242C20.5635 13.7293 20.5495 13.7374 20.5376 13.7479C20.5256 13.7585 20.5158 13.7713 20.5089 13.7857C20.5019 13.8001 20.4979 13.8158 20.4971 13.8317V20.9425C20.4965 20.9584 20.4928 20.974 20.4861 20.9883C20.4794 21.0027 20.4698 21.0156 20.458 21.0262C20.4462 21.0368 20.4323 21.0449 20.4173 21.05C20.4023 21.0551 20.3864 21.0571 20.3706 21.0559H14.5838C14.5678 21.0571 14.5518 21.0551 14.5367 21.05C14.5215 21.0449 14.5075 21.0369 14.4956 21.0263C14.4836 21.0157 14.4738 21.0029 14.4669 20.9885C14.4599 20.9741 14.4559 20.9585 14.4551 20.9425V13.8317C14.4542 13.8158 14.4502 13.8001 14.4433 13.7857C14.4363 13.7713 14.4266 13.7585 14.4146 13.7479C14.4026 13.7374 14.3886 13.7293 14.3735 13.7242C14.3583 13.7191 14.3423 13.7171 14.3264 13.7183H7.24393C7.22782 13.7195 7.21163 13.7174 7.19634 13.7122C7.18106 13.7069 7.16698 13.6987 7.15496 13.6879C7.14295 13.6771 7.13323 13.664 7.1264 13.6493C7.11958 13.6347 7.11578 13.6188 7.11523 13.6027V7.98165C7.11688 7.93876 7.12713 7.89663 7.14537 7.85777C7.1636 7.81891 7.18946 7.78411 7.22139 7.75542C7.25333 7.72674 7.2907 7.70476 7.33129 7.69079C7.37188 7.67682 7.41486 7.67115 7.45769 7.6741H27.4945C27.5373 7.67115 27.5803 7.67682 27.6209 7.69079C27.6614 7.70476 27.6988 7.72674 27.7308 7.75542C27.7627 7.78411 27.7885 7.81891 27.8068 7.85777C27.825 7.89663 27.8353 7.93876 27.8369 7.98165V13.6027Z" fill="#DAE5A4"/>
<path id="Vector_8" d="M48.8046 12.7038H44.3353C43.8467 12.7038 43.6504 12.4595 43.6504 11.971V10.1627C43.6504 9.74828 43.8685 9.55197 44.3048 9.55197H57.4532C57.9418 9.55197 58.1076 9.79627 58.064 10.1627L57.8676 12.0931C57.8197 12.5817 57.5012 12.7038 56.9951 12.7038H52.6894V25.8218C52.6894 26.2144 52.5193 26.5067 52.035 26.5067H49.4895C49.0009 26.5067 48.8046 26.2885 48.8046 25.7978V12.7038Z" fill="#4B4849"/>
<path id="Vector_9" d="M62.4625 10.1625C62.6087 9.79606 62.829 9.55176 63.2936 9.55176H65.874C66.3386 9.55176 66.5589 9.79606 66.705 10.1625L72.6162 25.6492C72.7885 26.0855 72.6903 26.5043 72.1799 26.5043H69.449C68.8623 26.5043 68.6442 26.236 68.4958 25.8194L67.5186 22.9838H61.4854L60.5082 25.9153C60.4772 26.087 60.3849 26.2416 60.2485 26.3503C60.1121 26.459 59.9408 26.5145 59.7666 26.5065H57.1491C56.6343 26.5065 56.5383 26.092 56.7128 25.6514L62.4625 10.1625ZM66.4695 20.0566L64.9295 15.2448C64.7594 14.706 64.6111 14.2436 64.4933 13.827H64.4431C64.321 14.2632 64.1748 14.7322 64.0069 15.2688L62.4669 20.0675L66.4695 20.0566Z" fill="#4B4849"/>
<path id="Vector_10" d="M79.5631 26.8251C77.8251 26.8114 76.1007 26.5168 74.4568 25.9526C74.0205 25.8065 73.87 25.5622 74.0424 25.0256L74.6967 23.0472C74.7709 22.8029 74.893 22.5826 75.2093 22.5826C75.3533 22.5875 75.4949 22.6209 75.6259 22.6808C76.8441 23.147 78.1326 23.4029 79.4365 23.4377C80.4617 23.4377 81.7574 22.9251 81.7574 21.7276C81.7574 20.7984 81.0245 20.3338 80.2676 19.9826L76.9957 18.4666C75.1897 17.6378 73.9922 16.124 73.9922 14.0736C73.9922 10.9479 77.1201 9.18769 79.9775 9.18769C81.6332 9.1695 83.2739 9.50256 84.7915 10.1649C85.2801 10.383 85.4022 10.6011 85.2277 11.0941L84.4708 12.9983C84.3007 13.4345 84.0346 13.5131 83.5416 13.3168C82.2481 12.7802 81.223 12.5359 80.2196 12.5359C79.2162 12.5359 78.1431 12.9023 78.1431 14.0496C78.1431 14.8305 79.1203 15.3191 79.731 15.5896L82.5404 16.8591C84.473 17.7359 85.7228 19.0556 85.7228 21.2717C85.7228 24.7966 82.9091 26.8251 79.5631 26.8251Z" fill="#4B4849"/>
<path id="Vector_11" d="M93.4137 26.8251C91.6757 26.8114 89.9514 26.5168 88.3074 25.9526C87.8712 25.8065 87.7228 25.5622 87.893 25.0256L88.5474 23.0472C88.6215 22.8029 88.7437 22.5826 89.0599 22.5826C89.2039 22.5875 89.3455 22.6209 89.4766 22.6808C90.6948 23.1468 91.9833 23.4027 93.2872 23.4377C94.3123 23.4377 95.608 22.9251 95.608 21.7276C95.608 20.7984 94.8751 20.3338 94.1182 19.9826L90.8464 18.4667C89.0403 17.6378 87.8428 16.124 87.8428 14.0737C87.8428 10.948 90.9707 9.18771 93.8303 9.18771C95.4853 9.16957 97.1253 9.50263 98.6421 10.1649C99.1307 10.383 99.2528 10.6012 99.0783 11.0941L98.3214 12.9983C98.1513 13.4346 97.8852 13.5131 97.3944 13.3168C96.0988 12.7802 95.0736 12.5359 94.0724 12.5359C93.0712 12.5359 91.9937 12.9023 91.9937 14.0497C91.9937 14.8306 92.9709 15.3191 93.5816 15.5896L96.391 16.8591C98.3214 17.7316 99.5669 19.0578 99.5669 21.2804C99.5691 24.7966 96.7597 26.8251 93.4137 26.8251Z" fill="#4B4849"/>
<path id="Vector_12" d="M105.945 12.7036H101.476C100.987 12.7036 100.791 12.4593 100.791 11.9707V10.1625C100.791 9.74807 101.009 9.55176 101.445 9.55176H114.587C115.076 9.55176 115.242 9.79606 115.198 10.1625L115.004 12.0929C114.954 12.5815 114.637 12.7036 114.131 12.7036H109.83V25.8215C109.83 26.2142 109.66 26.5065 109.176 26.5065H106.63C106.142 26.5065 105.945 26.2883 105.945 25.7976V12.7036Z" fill="#4B4849"/>
<path id="Vector_13" d="M119.602 10.1627C119.75 9.79627 119.968 9.55197 120.433 9.55197H123.022C123.487 9.55197 123.707 9.79627 123.853 10.1627L129.764 25.6494C129.937 26.0857 129.838 26.5045 129.328 26.5045H126.588C126.004 26.5045 125.783 26.2362 125.637 25.8196L124.66 22.984H118.625L117.647 25.9156C117.617 26.0859 117.526 26.2395 117.392 26.3481C117.257 26.4567 117.087 26.513 116.915 26.5067H114.297C113.785 26.5067 113.686 26.0922 113.861 25.6516L119.602 10.1627ZM123.609 20.0568L122.069 15.245C121.899 14.7062 121.753 14.2438 121.633 13.8272H121.582C121.46 14.2634 121.314 14.7324 121.146 15.269L119.606 20.0677L123.609 20.0568Z" fill="#4B4849"/>
</g>
<defs>
<linearGradient id="paint0_linear_1136_26736" x1="17.4772" y1="-4.44277" x2="17.4772" y2="40.0325" gradientUnits="userSpaceOnUse">
<stop offset="0.41" stop-color="#4B4849"/>
<stop offset="0.64" stop-color="#413E3F"/>
<stop offset="1" stop-color="#363334"/>
</linearGradient>
<clipPath id="clip0_1136_26736">
<rect width="130.001" height="34.8997" fill="white" transform="translate(0 0.549805)"/>
</clipPath>
</defs>
</svg>
