<svg width="28" height="28" viewBox="0 0 28 28" fill="none" xmlns="http://www.w3.org/2000/svg">
<g clip-path="url(#clip0_973_21746)">
<mask id="mask0_973_21746" style="mask-type:luminance" maskUnits="userSpaceOnUse" x="0" y="-1" width="29" height="29">
<path d="M0.00195312 -0.000730515H28.002V27.9993H0.00195312V-0.000730515Z" fill="white"/>
</mask>
<g mask="url(#mask0_973_21746)">
<path d="M13.0508 0.793345L1.51116 8.34848C1.2696 8.50663 1.12402 8.77591 1.12402 9.06461V10.001C1.12402 10.4319 1.47337 10.7812 1.9043 10.7812H26.0975C26.5284 10.7812 26.8778 10.4319 26.8778 10.001V9.0697C26.8778 8.77821 26.7295 8.50674 26.4841 8.3493L14.6989 0.785853C14.1961 0.463197 13.5507 0.46615 13.0508 0.793345Z" stroke="black" stroke-width="1.09375" stroke-miterlimit="10" stroke-linecap="round" stroke-linejoin="round"/>
<path d="M6.37951 8.01102L13.2106 3.53862C13.6206 3.27016 14.1502 3.26775 14.5628 3.53244L21.5394 8.00992C21.7159 8.12324 21.6357 8.39673 21.426 8.39673H6.49458C6.28589 8.39673 6.20495 8.12531 6.37951 8.01102Z" stroke="black" stroke-width="1.09375" stroke-miterlimit="10" stroke-linecap="round" stroke-linejoin="round"/>
<path d="M7.55544 10.7815H4.62938C4.04505 10.7815 3.57129 11.2552 3.57129 11.8395C3.57129 12.4238 4.04505 12.8976 4.62938 12.8976V22.2708H7.55544V12.8976C8.13977 12.8976 8.61353 12.4238 8.61353 11.8395C8.61353 11.2552 8.13977 10.7815 7.55544 10.7815Z" stroke="black" stroke-width="1.09375" stroke-miterlimit="10" stroke-linecap="round" stroke-linejoin="round"/>
<path d="M15.3357 10.7815H12.4097C11.8253 10.7815 11.3516 11.2552 11.3516 11.8395C11.3516 12.4238 11.8253 12.8976 12.4097 12.8976V22.2708H15.3357V12.8976C15.92 12.8976 16.3937 12.4238 16.3937 11.8395C16.3937 11.2552 15.92 10.7815 15.3357 10.7815Z" stroke="black" stroke-width="1.09375" stroke-miterlimit="10" stroke-linecap="round" stroke-linejoin="round"/>
<path d="M23.115 10.7822H20.189C19.6046 10.7822 19.1309 11.2559 19.1309 11.8403C19.1309 12.4246 19.6046 12.8983 20.189 12.8983V22.2715H23.115V12.8983C23.6993 12.8983 24.173 12.4246 24.173 11.8403C24.173 11.2559 23.6993 10.7822 23.115 10.7822Z" stroke="black" stroke-width="1.09375" stroke-miterlimit="10" stroke-linecap="round" stroke-linejoin="round"/>
<path d="M16.3411 24.8611H24.231C24.5595 24.8611 24.8257 24.5949 24.8257 24.2664V22.865C24.8257 22.5365 24.5595 22.2703 24.231 22.2703H3.51465C3.1862 22.2703 2.91992 22.5365 2.91992 22.865V24.2664C2.91992 24.5949 3.1862 24.8611 3.51465 24.8611H11.4775" stroke="black" stroke-width="1.09375" stroke-miterlimit="10" stroke-linecap="round" stroke-linejoin="round"/>
<path d="M11.4771 24.8611H1.7187C1.3903 24.8611 1.12402 25.1274 1.12402 25.4558V26.8572C1.12402 27.1857 1.3903 27.4519 1.7187 27.4519H26.2831C26.6115 27.4519 26.8778 27.1857 26.8778 26.8572V25.4558C26.8778 25.1274 26.6115 24.8611 26.2831 24.8611H16.3407" stroke="black" stroke-width="1.09375" stroke-miterlimit="10" stroke-linecap="round" stroke-linejoin="round"/>
</g>
</g>
<defs>
<clipPath id="clip0_973_21746">
<rect width="28" height="28" fill="white"/>
</clipPath>
</defs>
</svg>
