<svg width="28" height="28" viewBox="0 0 28 28" fill="none" xmlns="http://www.w3.org/2000/svg">
<path d="M10.7168 8.61108V15.1736H17.2793V8.61108" stroke="#272932" stroke-miterlimit="10" stroke-linecap="round" stroke-linejoin="round"/>
<path d="M13.998 15.1736V12.7126" stroke="#272932" stroke-miterlimit="10" stroke-linecap="round" stroke-linejoin="round"/>
<path d="M9.07617 10.2517L13.998 5.32983L18.9199 10.2517" stroke="#272932" stroke-miterlimit="10" stroke-linecap="round" stroke-linejoin="round"/>
<path d="M14.6969 9.43123C14.6969 9.81781 14.3835 10.1312 13.9969 10.1312C13.6103 10.1312 13.2969 9.81781 13.2969 9.43123C13.2969 9.04464 13.6103 8.73123 13.9969 8.73123C14.3835 8.73123 14.6969 9.04464 14.6969 9.43123Z" fill="#272932"/>
<path d="M13.6562 26L6.17572 16.6432C5.00604 15.0828 4.3125 13.1459 4.3125 11.05C4.3125 5.89759 8.50379 1.7063 13.6562 1.7063C18.8087 1.7063 23 5.89759 23 11.05C23 13.1459 22.3065 15.0828 21.1368 16.6432L13.6562 26Z" stroke="#272932" stroke-miterlimit="10" stroke-linecap="round" stroke-linejoin="round"/>
</svg>
