<svg width="28" height="28" viewBox="0 0 28 28" fill="none" xmlns="http://www.w3.org/2000/svg">
<path d="M14.3364 2.48521C17.2059 2.48521 19.5361 4.81559 19.5361 7.68481C19.5361 10.5552 17.2059 12.8845 14.3364 12.8845C11.467 12.8845 9.13672 10.5552 9.13672 7.68481C9.13672 4.81559 11.467 2.48521 14.3364 2.48521Z" stroke="#272932" stroke-miterlimit="10" stroke-linecap="round" stroke-linejoin="round"/>
<path d="M20 14.9956C18.4803 13.6806 16.4994 12.8848 14.3341 12.8848C9.55124 12.8848 5.66797 16.768 5.66797 21.551V24.1204C8.14819 25.7817 11.1285 26.7506 14.3341 26.7506C15.5966 26.7506 16.8242 26.6003 18 26.3166" stroke="#272932" stroke-miterlimit="10" stroke-linecap="round" stroke-linejoin="round"/>
<path d="M26.8682 20.967C26.8682 24.2443 24.2114 26.9011 20.9341 26.9011C17.6568 26.9011 15 24.2443 15 20.967C15 17.6898 17.6568 15 20.9341 15C24.2114 15 26.8682 17.6898 26.8682 20.967Z" stroke="#272932" stroke-miterlimit="10" stroke-linecap="round" stroke-linejoin="round"/>
<path d="M21.0115 18.2717L21.9421 20.1573L24.023 20.4597L22.5173 21.9275L22.8727 24L21.0115 23.0215L19.1503 24L19.5058 21.9275L18 20.4597L20.0809 20.1573L21.0115 18.2717Z" stroke="#272932" stroke-miterlimit="10" stroke-linecap="round" stroke-linejoin="round"/>
</svg>
