<svg width="28" height="28" viewBox="0 0 28 28" fill="none" xmlns="http://www.w3.org/2000/svg">
<path d="M17.1863 15.2511L20.3933 18.4581C20.8925 18.9572 20.8925 19.7664 20.3933 20.2656C19.8942 20.7647 19.085 20.7647 18.5858 20.2656L16.0273 17.7071" stroke="#272932" stroke-width="1.03704" stroke-miterlimit="10" stroke-linecap="round" stroke-linejoin="round"/>
<path d="M16.027 17.707L18.3086 19.9887C18.8078 20.4878 18.8078 21.297 18.3086 21.7962C17.8095 22.2953 17.0003 22.2953 16.5012 21.7962L14.8574 20.1524" stroke="#272932" stroke-width="1.03704" stroke-miterlimit="10" stroke-linecap="round" stroke-linejoin="round"/>
<path d="M14.8577 20.1523L15.8599 21.1546C16.359 21.6537 16.359 22.4629 15.8599 22.9621C15.3608 23.4612 14.5516 23.4612 14.0524 22.9621L13.584 22.4936" stroke="#272932" stroke-width="1.03704" stroke-miterlimit="10" stroke-linecap="round" stroke-linejoin="round"/>
<path d="M21.8142 8.16842L21.543 8.30378C20.5666 8.79099 19.4324 8.85377 18.4082 8.47719C16.9595 7.94459 15.3509 8.06785 14.0003 8.81494L11.6199 10.1318C10.8419 10.5621 10.6051 11.5698 11.1101 12.3016C11.4993 12.8657 12.2208 13.0953 12.8644 12.8598L15.8623 11.763C16.5102 11.526 17.2368 11.6864 17.7246 12.1742L22.201 16.6506C22.7001 17.1497 22.7001 17.9589 22.201 18.458C21.7018 18.9572 20.8926 18.9572 20.3935 18.458L16.8585 14.923" stroke="#272932" stroke-width="1.03704" stroke-miterlimit="10" stroke-linecap="round" stroke-linejoin="round"/>
<path d="M14.0007 8.81498C12.6501 8.06784 11.0415 7.94457 9.59287 8.47723C8.56868 8.85381 7.43452 8.79103 6.45807 8.30382L6.19727 8.17366" stroke="#272932" stroke-width="1.03704" stroke-miterlimit="10" stroke-linecap="round" stroke-linejoin="round"/>
<path d="M22.2656 16.5998L24.5873 15.3643" stroke="#272932" stroke-width="1.03704" stroke-miterlimit="10" stroke-linecap="round" stroke-linejoin="round"/>
<path d="M5.47466 16.3948L3.54102 14.8634" stroke="#272932" stroke-width="1.03704" stroke-miterlimit="10" stroke-linecap="round" stroke-linejoin="round"/>
<path d="M10.8601 17.9405L9.51972 19.2809C9.02058 19.78 8.21137 19.78 7.71224 19.2809C7.21311 18.7818 7.21311 17.9725 7.71224 17.4734L9.05263 16.133C9.55176 15.6339 10.361 15.6339 10.8601 16.133C11.3592 16.6321 11.3592 17.4414 10.8601 17.9405Z" stroke="#272932" stroke-width="1.03704" stroke-miterlimit="10" stroke-linecap="round" stroke-linejoin="round"/>
<path d="M12.6687 19.748L11.3283 21.0884C10.8292 21.5875 10.02 21.5875 9.52083 21.0884C9.0217 20.5892 9.0217 19.78 9.52083 19.2809L10.8612 17.9405C11.3604 17.4414 12.1696 17.4414 12.6687 17.9405C13.1678 18.4396 13.1678 19.2489 12.6687 19.748Z" stroke="#272932" stroke-width="1.03704" stroke-miterlimit="10" stroke-linecap="round" stroke-linejoin="round"/>
<path d="M13.9081 22.1229L13.4357 22.5952C12.9366 23.0943 12.1274 23.0943 11.6283 22.5952C11.1291 22.0961 11.1291 21.2869 11.6283 20.7877L12.1006 20.3154C12.5997 19.8163 13.4089 19.8163 13.9081 20.3154C14.4072 20.8145 14.4072 21.6237 13.9081 22.1229Z" stroke="#272932" stroke-width="1.03704" stroke-miterlimit="10" stroke-linecap="round" stroke-linejoin="round"/>
<path d="M6.50219 15.0694L5.9056 15.666C5.40647 16.1651 5.40647 16.9743 5.9056 17.4734C6.40473 17.9726 7.21394 17.9726 7.71308 17.4734L8.30966 16.8769C8.8088 16.3777 8.8088 15.5685 8.30966 15.0694C7.81053 14.5703 7.00132 14.5703 6.50219 15.0694Z" stroke="#272932" stroke-width="1.03704" stroke-miterlimit="10" stroke-linecap="round" stroke-linejoin="round"/>
<path d="M27.4537 15.3289L25.0639 16.1885L21.3633 6.98362L25.7034 4.66345L27.4537 15.3289Z" stroke="#272932" stroke-width="1.03704" stroke-miterlimit="10" stroke-linecap="round" stroke-linejoin="round"/>
<path d="M0.546875 15.3289L2.93661 16.1885L6.63726 6.98362L2.29709 4.66345L0.546875 15.3289Z" stroke="#272932" stroke-width="1.03704" stroke-miterlimit="10" stroke-linecap="round" stroke-linejoin="round"/>
</svg>
