<svg width="28" height="28" viewBox="0 0 28 28" fill="none" xmlns="http://www.w3.org/2000/svg">
<path d="M18.034 2.54089L17.8404 2.15357H10.503L10.3093 2.54089C9.30382 4.55188 7.24835 5.82225 5 5.82225V13.673C5 19.3564 8.72793 24.3669 14.1717 26C19.6154 24.3669 23.3434 19.3564 23.3434 13.673V5.82225C21.095 5.82225 19.0395 4.55188 18.034 2.54089Z" stroke="#272932" stroke-miterlimit="10" stroke-linecap="round" stroke-linejoin="round"/>
<path d="M14.2227 5.40006C15.8782 5.40006 17.2227 6.74459 17.2227 8.40001C17.2227 10.0561 15.8782 11.4 14.2227 11.4C12.5671 11.4 11.2227 10.0561 11.2227 8.40001C11.2227 6.74459 12.5671 5.40006 14.2227 5.40006Z" stroke="#272932" stroke-miterlimit="10" stroke-linecap="round" stroke-linejoin="round"/>
<path d="M9 18.4157V16.9333C9 14.1737 11.2405 11.9332 14 11.9332C16.7595 11.9332 19 14.1737 19 16.9333V18.4157C17.569 19.3742 15.8495 19.9332 14 19.9332C12.1505 19.9332 10.431 19.3742 9 18.4157Z" stroke="#272932" stroke-miterlimit="10" stroke-linecap="round" stroke-linejoin="round"/>
</svg>
