<svg width="28" height="28" viewBox="0 0 28 28" fill="none" xmlns="http://www.w3.org/2000/svg">
<g clip-path="url(#clip0_973_21817)">
<g clip-path="url(#clip1_973_21817)">
<path d="M21.4342 18.5576C19.7796 18.5576 18.4336 19.9036 18.4336 21.5582C18.4336 23.2128 19.7796 24.5587 21.4342 24.5587C23.0888 24.5587 24.4347 23.2128 24.4347 21.5582C24.4347 19.9036 23.0888 18.5576 21.4342 18.5576ZM21.4342 23.7014C20.2524 23.7014 19.2909 22.74 19.2909 21.5582C19.2909 20.3764 20.2524 19.4149 21.4342 19.4149C22.616 19.4149 23.5774 20.3764 23.5774 21.5582C23.5774 22.74 22.616 23.7014 21.4342 23.7014Z" fill="black"/>
<path d="M21.4334 20.2715C20.7244 20.2715 20.1475 20.8485 20.1475 21.5574C20.1475 22.2664 20.7244 22.8434 21.4334 22.8434C22.1424 22.8434 22.7194 22.2664 22.7194 21.5574C22.7194 20.8485 22.1424 20.2715 21.4334 20.2715ZM21.4334 21.9861C21.1972 21.9861 21.0048 21.7936 21.0048 21.5574C21.0048 21.3213 21.1972 21.1288 21.4334 21.1288C21.6696 21.1288 21.8621 21.3213 21.8621 21.5574C21.8621 21.7936 21.6696 21.9861 21.4334 21.9861Z" fill="black"/>
<path d="M1.5519 11.2703H1.71564V17.7001H2.57295V10.413H1.5519C1.40573 10.413 1.28699 10.2942 1.28699 10.1481C1.28699 10.1074 1.29642 10.0662 1.31485 10.0298L2.76456 7.13037C2.855 6.94991 3.1482 6.94991 3.23822 7.13037L4.68792 10.0298C4.70678 10.0662 4.71621 10.1074 4.71621 10.1481C4.71621 10.2942 4.59747 10.413 4.4513 10.413H3.43025V17.7001H4.28756V11.2703H4.4513C5.07028 11.2703 5.57351 10.7671 5.57351 10.1481C5.57351 9.9749 5.53236 9.8013 5.45521 9.64613L4.0055 6.74715C3.81432 6.36437 3.42982 6.12646 3.0016 6.12646C2.57338 6.12646 2.18888 6.36437 1.9977 6.74672L0.547995 9.64613C0.470838 9.8013 0.429688 9.9749 0.429688 10.1481C0.429688 10.7671 0.932925 11.2703 1.5519 11.2703Z" fill="black"/>
<path d="M7.99867 12.3638C8.18985 12.7466 8.57435 12.9845 9.00258 12.9845C9.4308 12.9845 9.8153 12.7466 10.0065 12.3642L11.4562 9.46483C11.5333 9.30966 11.5745 9.13606 11.5745 8.96288C11.5745 8.34391 11.0713 7.84067 10.4523 7.84067H10.2885V1.41089H9.43123V8.69798H10.4523C10.5984 8.69798 10.7172 8.81671 10.7172 8.96288C10.7172 9.0036 10.7078 9.04475 10.6893 9.08119L9.23962 11.9806C9.14918 12.1611 8.85598 12.1611 8.76596 11.9806L7.31626 9.08119C7.2974 9.04475 7.28797 9.0036 7.28797 8.96288C7.28797 8.81671 7.4067 8.69798 7.55288 8.69798H8.57392V1.41089H7.71662V7.84067H7.55288C6.9339 7.84067 6.43066 8.34391 6.43066 8.96288C6.43066 9.13606 6.47181 9.30966 6.54897 9.46483L7.99867 12.3638Z" fill="black"/>
<path d="M24.8629 0.553711H14.5752C13.3934 0.553711 12.4319 1.51518 12.4319 2.69697V14.289C10.6963 14.424 9.10946 15.3718 8.16643 16.8438C8.15957 16.8438 8.15271 16.8425 8.14542 16.8425C6.40253 16.8425 4.83023 17.9188 4.17911 19.5091C3.93563 19.4461 3.6853 19.4144 3.43025 19.4144C1.77566 19.4144 0.429688 20.7604 0.429688 22.415C0.429688 24.0696 1.77566 25.4155 3.43025 25.4155H17.4112L17.6444 25.6487C18.0481 26.0521 18.6615 26.1507 19.1708 25.893C19.2912 25.8313 19.4275 25.8258 19.5454 25.8768C19.6007 25.9008 19.6569 25.9239 19.7126 25.9458C19.8326 25.9921 19.9256 26.0937 19.9681 26.2235C20.1464 26.7658 20.6496 27.1301 21.2202 27.1301H21.6471C22.2176 27.1301 22.7209 26.7658 22.8992 26.2231C22.9416 26.0937 23.0347 25.9925 23.1538 25.9462C23.2104 25.9243 23.2666 25.9016 23.3223 25.8772C23.4389 25.8262 23.5756 25.8326 23.6965 25.8935C24.2062 26.1511 24.8191 26.0525 25.2229 25.6491L25.5251 25.3474C25.9289 24.944 26.0271 24.3302 25.7695 23.8209C25.7082 23.7001 25.7026 23.5638 25.7532 23.4463C25.7772 23.391 25.8003 23.3349 25.8222 23.2791C25.8685 23.1591 25.9701 23.0661 26.0999 23.0237C26.6418 22.8449 27.0061 22.3417 27.0061 21.7711V21.5577V21.3442V2.69697C27.0061 1.51518 26.0446 0.553711 24.8629 0.553711ZM14.5752 1.41102H24.8629C25.5718 1.41102 26.1488 1.98798 26.1488 2.69697V20.1127C26.1317 20.1062 26.1162 20.0977 26.0991 20.0917C25.9696 20.0492 25.8685 19.9562 25.8222 19.8371C25.8003 19.7805 25.7776 19.7243 25.7532 19.6686C25.7026 19.5516 25.7086 19.4153 25.7695 19.2944C26.0271 18.7851 25.9289 18.1713 25.5251 17.7679L25.2915 17.5348V3.12562C25.2915 2.65282 24.907 2.26832 24.4342 2.26832H15.0039C14.5311 2.26832 14.1466 2.65282 14.1466 3.12562V14.4232C13.8666 14.3563 13.5803 14.31 13.2892 14.2873V2.69697C13.2892 1.98798 13.8662 1.41102 14.5752 1.41102ZM17.8244 17.3174C17.2187 16.1314 16.2084 15.2115 15.0039 14.7057V13.4133H24.4342V17.0907C24.1864 17.0637 23.931 17.1035 23.6965 17.2218C23.576 17.2831 23.4397 17.2891 23.3219 17.2381C23.267 17.2141 23.2108 17.1914 23.1547 17.1691C23.0351 17.1228 22.9416 17.0212 22.8992 16.8914C22.7209 16.3495 22.2176 15.9852 21.6471 15.9852H21.2202C20.6496 15.9852 20.1464 16.3495 19.9681 16.8922C19.9256 17.0217 19.8326 17.1228 19.7126 17.1691C19.6564 17.191 19.6007 17.2137 19.545 17.2381C19.428 17.2887 19.2917 17.2831 19.1708 17.2218C18.7318 17.0002 18.217 17.0435 17.8244 17.3174ZM24.4342 5.69754H15.0039V3.12562H24.4342V5.69754ZM15.0039 6.55484H24.4342V9.12675H15.0039V6.55484ZM15.0039 9.98406H24.4342V12.556H15.0039V9.98406ZM1.28699 22.415C1.28699 21.2332 2.24846 20.2717 3.43025 20.2717C3.72216 20.2717 4.00636 20.33 4.27427 20.4449L4.71964 20.6356L4.85509 20.1705C5.27774 18.7157 6.631 17.6998 8.14542 17.6998C9.29207 17.6998 10.3586 18.2699 10.9972 19.2241L11.7097 18.7474C11.0984 17.8344 10.1734 17.2064 9.13047 16.9604C10.0169 15.8172 11.3946 15.1279 12.8606 15.1279C14.7351 15.1279 16.4407 16.2591 17.1836 17.9647C16.9195 18.3552 16.8792 18.8619 17.0983 19.2944C17.1596 19.4153 17.1651 19.5516 17.1145 19.669C17.0905 19.7243 17.0674 19.7805 17.0455 19.8362C16.9992 19.9562 16.8976 20.0492 16.7678 20.0917C16.2255 20.2704 15.8612 20.7737 15.8612 21.3442V21.7711C15.8612 22.3417 16.2255 22.8449 16.7682 23.0232C16.8976 23.0657 16.9988 23.1587 17.0451 23.2778C17.067 23.3344 17.0897 23.3906 17.1141 23.4463C17.1647 23.5633 17.1587 23.6996 17.0978 23.8205C16.9795 24.0546 16.9397 24.3105 16.9667 24.5582H3.43025C2.24846 24.5582 1.28699 23.5968 1.28699 22.415ZM26.1488 21.7711C26.1488 21.9705 26.0215 22.1462 25.8316 22.2088C25.4578 22.3314 25.1629 22.6083 25.0232 22.9684C25.0052 23.0142 24.9863 23.0601 24.967 23.1047C24.8144 23.4562 24.8277 23.8578 25.0043 24.2072C25.0943 24.3851 25.06 24.5994 24.919 24.7404L24.6168 25.0426C24.4758 25.1836 24.2615 25.2179 24.0836 25.1279C23.7346 24.9513 23.3321 24.938 22.9815 25.0906C22.9365 25.1099 22.8906 25.1288 22.8439 25.1472C22.4843 25.2869 22.2078 25.5818 22.0848 25.9561C22.0226 26.1455 21.8464 26.2728 21.6471 26.2728H21.2202C21.0208 26.2728 20.8451 26.1455 20.7825 25.9556C20.6599 25.5818 20.383 25.2869 20.0229 25.1472C19.9771 25.1292 19.9312 25.1103 19.8866 25.091C19.7246 25.0203 19.5519 24.9852 19.3783 24.9852C19.1755 24.9852 18.9723 25.0332 18.7841 25.1279C18.6058 25.2175 18.3915 25.1836 18.2509 25.0426L17.9487 24.7404C17.8077 24.5994 17.7734 24.3851 17.8634 24.2072C18.04 23.8578 18.0533 23.4562 17.9007 23.1051C17.8814 23.0601 17.8625 23.0142 17.8441 22.9675C17.7044 22.6079 17.4095 22.3314 17.0352 22.2084C16.8458 22.1466 16.7185 21.9705 16.7185 21.7711V21.3442C16.7185 21.1449 16.8458 20.9691 17.0352 20.9065C17.4095 20.7839 17.7044 20.507 17.8441 20.147C17.8621 20.1011 17.881 20.0552 17.9003 20.0107C18.0529 19.6592 18.0396 19.2575 17.863 18.9082C17.7729 18.7303 17.8072 18.5155 17.9483 18.3745L18.25 18.0727C18.3911 17.9313 18.6054 17.8965 18.7837 17.9874C19.1331 18.164 19.5351 18.1773 19.8858 18.0247C19.9312 18.005 19.9771 17.9861 20.0229 17.9686C20.3826 17.8284 20.6595 17.5335 20.7825 17.1597C20.8447 16.9698 21.0208 16.8425 21.2202 16.8425H21.6471C21.8464 16.8425 22.0222 16.9698 22.0848 17.1597C22.2078 17.5335 22.4843 17.8284 22.8439 17.9681C22.8898 17.9861 22.9356 18.005 22.9806 18.0243C23.3317 18.1769 23.7338 18.1632 24.0831 17.987C24.261 17.8965 24.4754 17.9313 24.6168 18.0723L24.9186 18.3741C25.0596 18.5151 25.0939 18.7298 25.0039 18.9077C24.8273 19.2571 24.814 19.6587 24.9666 20.0098C24.9859 20.0548 25.0047 20.1007 25.0232 20.1474C25.1629 20.507 25.4578 20.7835 25.832 20.9065C26.0215 20.9687 26.1488 21.1449 26.1488 21.3442V21.5577V21.7711Z" fill="black"/>
<path d="M15.8613 3.98267H16.7186V4.83997H15.8613V3.98267Z" fill="black"/>
<path d="M17.5762 3.98267H18.4335V4.83997H17.5762V3.98267Z" fill="black"/>
<path d="M15.8613 10.8413H16.7186V11.6986H15.8613V10.8413Z" fill="black"/>
<path d="M17.5762 10.8413H18.4335V11.6986H17.5762V10.8413Z" fill="black"/>
<path d="M22.7197 7.41235H23.577V8.26966H22.7197V7.41235Z" fill="black"/>
<path d="M21.0049 7.41235H21.8622V8.26966H21.0049V7.41235Z" fill="black"/>
<path d="M22.7197 14.2708H23.577V15.1281H22.7197V14.2708Z" fill="black"/>
<path d="M21.0049 14.2708H21.8622V15.1281H21.0049V14.2708Z" fill="black"/>
<path d="M12.86 15.9854C12.5333 15.9854 12.2089 16.0261 11.8955 16.1071L12.1094 16.9374C12.3529 16.8744 12.6054 16.8427 12.86 16.8427C14.2299 16.8427 15.425 17.7681 15.7662 19.0931L16.5965 18.8792C16.1576 17.1753 14.6213 15.9854 12.86 15.9854Z" fill="black"/>
<path d="M8.14547 18.5576C6.92725 18.5576 5.86719 19.4231 5.625 20.6156L6.46516 20.7862C6.62676 19.9915 7.33318 19.4149 8.14547 19.4149C8.68986 19.4149 9.1901 19.6648 9.51759 20.1012L10.203 19.5864C9.71177 18.9327 8.96206 18.5576 8.14547 18.5576Z" fill="black"/>
</g>
</g>
<defs>
<clipPath id="clip0_973_21817">
<rect width="28" height="28" fill="white"/>
</clipPath>
<clipPath id="clip1_973_21817">
<rect width="27.4337" height="27.4337" fill="white" transform="translate(0 0.124512)"/>
</clipPath>
</defs>
</svg>
