<svg width="28" height="28" viewBox="0 0 28 28" fill="none" xmlns="http://www.w3.org/2000/svg">
<path d="M16.9189 21.6907L16.6716 22L13.6562 25.7717L6.17572 16.4148C5.00604 14.8544 4.3125 12.9175 4.3125 10.8217C4.3125 5.6692 8.5038 1.47791 13.6562 1.47791C18.8087 1.47791 23 5.6692 23 10.8217C23 12.9175 22.3065 14.8544 21.1368 16.4148L20.5 17.2113" stroke="#272932" stroke-miterlimit="10" stroke-linecap="round" stroke-linejoin="round"/>
<path d="M13.6576 13.9366C15.3777 13.9366 16.7721 12.5421 16.7721 10.822C16.7721 9.10184 15.3777 7.7074 13.6576 7.7074C11.9374 7.7074 10.543 9.10184 10.543 10.822C10.543 12.5421 11.9374 13.9366 13.6576 13.9366Z" stroke="#272932" stroke-miterlimit="10" stroke-linecap="round" stroke-linejoin="round"/>
<path d="M22 27C24.7614 27 27 24.7614 27 22C27 19.2386 24.7614 17 22 17C19.2386 17 17 19.2386 17 22C17 24.7614 19.2386 27 22 27Z" stroke="#272932" stroke-miterlimit="10"/>
<path d="M22 18.7289V22.4401H24.7833" stroke="#272932" stroke-miterlimit="10" stroke-linecap="round" stroke-linejoin="round"/>
</svg>
