<svg width="28" height="28" viewBox="0 0 28 28" fill="none" xmlns="http://www.w3.org/2000/svg">
<g clip-path="url(#clip0_973_22674)">
<path d="M13.9995 1.00073C10.552 1.0012 7.24583 2.3708 4.80792 4.80838C2.37001 7.24596 0.999959 10.552 0.999023 13.9995C0.999959 17.4466 2.36976 20.7524 4.8073 23.1899C7.24483 25.6274 10.5506 26.9972 13.9977 26.9982C17.4449 26.9972 20.7507 25.6274 23.1882 23.1899C25.6257 20.7524 26.9955 17.4466 26.9965 13.9995C26.9955 10.5526 25.626 7.24711 23.1888 4.80963C20.7517 2.37215 17.4464 1.00214 13.9995 1.00073ZM22.7765 16.2788C22.7765 17.0639 22.3248 17.7519 21.441 17.909C19.9096 18.1842 16.6882 18.3412 13.9995 18.3412C11.3109 18.3412 8.0894 18.1648 6.55806 17.909C6.17294 17.8512 5.82301 17.6525 5.57621 17.3512C5.32942 17.05 5.20337 16.6678 5.22255 16.2788V11.212C5.22255 10.4269 5.8312 9.70007 6.55806 9.58187C7.0097 9.50248 8.06999 9.40545 8.89564 9.40545C9.20967 9.40545 9.46548 9.64185 9.46548 10.0141V13.569L14.0207 13.4702L18.5759 13.569V10.0335C18.5759 9.68066 18.8317 9.42485 19.1457 9.42485C19.9696 9.42485 21.0334 9.50424 21.4833 9.60127C22.2296 9.71948 22.8188 10.4481 22.8188 11.2314L22.78 16.2982L22.7765 16.2788Z" fill="black"/>
</g>
<defs>
<clipPath id="clip0_973_22674">
<rect width="25.9992" height="25.9992" fill="white" transform="translate(1.00098 1.00024)"/>
</clipPath>
</defs>
</svg>
