<svg width="28" height="28" viewBox="0 0 28 28" fill="none" xmlns="http://www.w3.org/2000/svg">
<g clip-path="url(#clip0_973_22672)">
<g clip-path="url(#clip1_973_22672)">
<path d="M20.5898 9.05078C21.4959 9.05078 22.2305 8.31625 22.2305 7.41016C22.2305 6.50406 21.4959 5.76953 20.5898 5.76953C19.6838 5.76953 18.9492 6.50406 18.9492 7.41016C18.9492 8.31625 19.6838 9.05078 20.5898 9.05078Z" stroke="black" stroke-width="1.4" stroke-miterlimit="10" stroke-linecap="round" stroke-linejoin="round"/>
<path d="M14 8.8638V5.95651L16.0229 5.78791C16.0788 5.63073 16.1424 5.47723 16.2135 5.32798L14.9022 3.7783L16.958 1.72255L18.5077 3.03384C18.6569 2.9627 18.8104 2.89915 18.9676 2.84331L19.1362 0.820312H22.0435L22.2121 2.84326C22.3693 2.89909 22.5228 2.9627 22.672 3.03379L24.2217 1.72249L26.2775 3.77825L24.9662 5.32793C25.0373 5.47717 25.1009 5.63068 25.1567 5.78785L27.1797 5.95651V8.8638L25.1567 9.03235C25.1009 9.18952 25.0373 9.34303 24.9662 9.49227L26.2775 11.042L24.2217 13.0977L22.672 11.7864C22.5228 11.8576 22.3693 11.9212 22.2121 11.977L22.0435 14H19.1362L18.9676 11.9771C18.8104 11.9212 18.6569 11.8576 18.5077 11.7865L16.958 13.0978L14.9022 11.042L16.2135 9.49233C16.1424 9.34309 16.0788 9.18958 16.0229 9.03241L14 8.8638Z" stroke="black" stroke-width="1.4" stroke-miterlimit="10" stroke-linecap="round" stroke-linejoin="round"/>
<path d="M10.6631 27.1797H15.667" stroke="black" stroke-width="1.4" stroke-miterlimit="10" stroke-linecap="round" stroke-linejoin="round"/>
<path d="M20.5898 22.2578V14.0547" stroke="black" stroke-width="1.4" stroke-miterlimit="10" stroke-linecap="round" stroke-linejoin="round"/>
<path d="M14 5.95654H5.79688V14.0547" stroke="black" stroke-width="1.4" stroke-miterlimit="10" stroke-linecap="round" stroke-linejoin="round"/>
<path d="M0.820312 27.1797L10.6641 27.1797L10.6641 17.3359L0.820313 17.3359L0.820312 27.1797Z" stroke="black" stroke-width="1.4" stroke-miterlimit="10" stroke-linecap="round" stroke-linejoin="round"/>
<path d="M10.6641 14.0547H0.820312V17.3359H10.6641V14.0547Z" stroke="black" stroke-width="1.4" stroke-miterlimit="10" stroke-linecap="round" stroke-linejoin="round"/>
<circle cx="7.38281" cy="23.8984" r="0.820312" fill="black"/>
<circle cx="4.10156" cy="23.8984" r="0.820312" fill="black"/>
<circle cx="7.38281" cy="20.6172" r="0.820312" fill="black"/>
<circle cx="4.10156" cy="20.6172" r="0.820312" fill="black"/>
<path d="M15.668 22.2578V27.1797L20.5898 22.2578H15.668Z" stroke="black" stroke-width="1.4" stroke-miterlimit="10" stroke-linecap="round" stroke-linejoin="round"/>
<path d="M15.668 27.1797L20.5898 22.2578" stroke="black" stroke-width="1.4" stroke-miterlimit="10" stroke-linecap="round" stroke-linejoin="round"/>
</g>
</g>
<defs>
<clipPath id="clip0_973_22672">
<rect width="28" height="28" fill="white"/>
</clipPath>
<clipPath id="clip1_973_22672">
<rect width="28" height="28" fill="white"/>
</clipPath>
</defs>
</svg>
