<svg width="28" height="28" viewBox="0 0 28 28" fill="none" xmlns="http://www.w3.org/2000/svg">
<g clip-path="url(#clip0_973_22669)">
<g clip-path="url(#clip1_973_22669)">
<path d="M27.1819 16.2554C27.4143 16.1481 27.5631 15.9155 27.5631 15.6596V12.3406C27.5631 12.0846 27.4141 11.8519 27.1816 11.7447L24.8261 10.6587L24.0194 8.70863L24.9152 6.27514C25.0036 6.03496 24.9443 5.76535 24.7634 5.58438L22.4164 3.23742C22.2354 3.05646 21.9657 2.99723 21.7256 3.0856L19.2922 3.98138L17.3421 3.17469L16.2561 0.819244C16.1489 0.586713 15.9162 0.437744 15.6602 0.437744H12.3412C12.0853 0.437744 11.8527 0.586549 11.7454 0.818916L10.6579 3.17458L8.70768 3.98133L6.2742 3.08555C6.03401 2.99712 5.7644 3.0564 5.58344 3.23736L3.23647 5.58433C3.0554 5.7654 2.99623 6.03517 3.08477 6.27542L3.9818 8.70852L3.17385 10.6586L0.819719 11.7447C0.587242 11.852 0.438383 12.0846 0.438383 12.3406V15.6595C0.438383 15.9154 0.587133 16.148 0.819445 16.2553L3.17391 17.3429L3.98186 19.2918L3.47616 20.6655L1.23316 22.9081C0.170797 23.9725 0.171016 25.7029 1.23359 26.7656C1.74744 27.2794 2.43273 27.5624 3.16335 27.5624C3.89398 27.5624 4.57927 27.2794 5.09311 26.7656L7.33355 24.5251L8.70757 24.0189L10.6579 24.8269L11.7455 27.1813C11.8528 27.4136 12.0853 27.5624 12.3412 27.5624H15.6602C15.9161 27.5624 16.1488 27.4135 16.256 27.181L17.3421 24.8268L18.6551 24.2826C19.2042 26.1748 20.952 27.5624 23.0189 27.5624C25.5245 27.5624 27.5629 25.5239 27.5629 23.0183C27.5629 20.9515 26.1755 19.2038 24.2834 18.6545L24.8261 17.3429L27.1818 16.2553L27.1819 16.2554ZM4.16512 25.8375C3.89923 26.1035 3.54348 26.2499 3.16346 26.2499C2.78344 26.2499 2.4277 26.1035 2.1618 25.8375C1.61045 25.2862 1.61066 24.388 2.1618 23.8358L10.1065 15.8927C10.2814 15.7178 10.3432 15.4594 10.2661 15.2243C10.1365 14.8288 10.0708 14.4171 10.0708 14.0008C10.0708 11.8343 11.8335 10.0717 14 10.0717C14.0232 10.0717 14.0465 10.0719 14.0697 10.0723L12.5872 11.5558C12.331 11.8121 12.3311 12.2275 12.5873 12.4838L15.5171 15.4136C15.7733 15.6699 16.1887 15.67 16.445 15.4138L17.9286 13.9312C17.929 13.9544 17.9292 13.9776 17.9292 14.0008C17.9292 16.1674 16.1666 17.93 14 17.93C13.5838 17.93 13.1721 17.8644 12.7765 17.7347C12.5415 17.6577 12.2831 17.7195 12.1082 17.8943L4.16506 25.8375L4.16512 25.8375ZM7.75174 14.0008C7.75174 10.5555 10.5547 7.75258 14 7.75258C17.4453 7.75258 20.2483 10.5555 20.2483 14.0008C20.2483 17.4462 17.4453 20.2491 14 20.2491C13.3022 20.2491 12.609 20.1312 11.9539 19.9049L12.764 19.0948C13.1682 19.1929 13.5824 19.2425 14 19.2425C16.8903 19.2425 19.2417 16.8911 19.2417 14.0008C19.2417 13.4406 19.1545 12.8913 18.9825 12.3682C18.9114 12.1518 18.733 11.9876 18.5113 11.9348C18.2895 11.8819 18.0564 11.9479 17.8952 12.109L15.9812 14.0217L13.9792 12.0196L15.8919 10.1056C16.053 9.94435 16.1189 9.71099 16.0659 9.48924C16.0129 9.26748 15.8486 9.08909 15.6319 9.0181C15.1074 8.84628 14.5584 8.75916 13.9999 8.75916C11.1096 8.75916 8.75821 11.1106 8.75821 14.0008C8.75821 14.4185 8.80781 14.8326 8.90592 15.2368L8.09589 16.0467C7.86959 15.3922 7.75163 14.6991 7.75163 14.0008H7.75174ZM16.6026 23.7126C16.4502 23.7758 16.3271 23.8941 16.258 24.0439L15.2403 26.2499H12.7611L11.7419 24.0437C11.6727 23.8939 11.5497 23.7757 11.3973 23.7126L9.09859 22.7601L10.9426 20.9161C11.9009 21.3392 12.9463 21.5616 14 21.5616C18.1691 21.5616 21.5608 18.1698 21.5608 14.0008C21.5608 9.8318 18.169 6.44003 14 6.44003C9.83101 6.44003 6.43924 9.8318 6.43924 14.0008C6.43924 15.0552 6.66166 16.1004 7.08477 17.0577L5.24082 18.9012L4.28816 16.6033C4.22505 16.451 4.10687 16.328 3.95714 16.2589L1.75094 15.2397V12.7605L3.95687 11.7428C4.10677 11.6736 4.22505 11.5506 4.28822 11.3981L5.29272 8.97364C5.35594 8.82106 5.35933 8.65033 5.30218 8.49545L4.46158 6.21542L6.21475 4.46225L8.49489 5.3016C8.6496 5.35858 8.82006 5.35519 8.97248 5.29219L11.3969 4.28922C11.5495 4.22611 11.6727 4.10777 11.7419 3.95787L12.7611 1.75024H15.2402L16.2579 3.9576C16.3271 4.10766 16.4503 4.22606 16.603 4.28922L19.0275 5.29219C19.1798 5.35519 19.3503 5.35853 19.505 5.3016L21.7852 4.46225L23.5385 6.21559L22.6991 8.49573C22.6422 8.65044 22.6456 8.82095 22.7086 8.97326L23.7115 11.3978C23.7747 11.5505 23.8931 11.6737 24.0431 11.7429L26.2505 12.7606V15.2396L24.0429 16.2588C23.893 16.3281 23.7747 16.4512 23.7115 16.6038L22.9368 18.4762C20.4966 18.5198 18.5207 20.4956 18.4769 22.9357L16.6025 23.7126H16.6026ZM26.2506 23.0183C26.2506 24.8002 24.8009 26.2499 23.019 26.2499C21.2371 26.2499 19.7874 24.8002 19.7874 23.0183C19.7874 21.2364 21.2371 19.7867 23.019 19.7867C24.8009 19.7867 26.2506 21.2364 26.2506 23.0183ZM22.4162 23.2747L24.4001 21.3712C24.6617 21.1203 25.077 21.1289 25.328 21.3904C25.5789 21.6519 25.5703 22.0674 25.3088 22.3183L22.861 24.6668C22.7339 24.7887 22.5703 24.8495 22.4067 24.8495C22.2386 24.8495 22.0706 24.7853 21.9427 24.6573L20.7196 23.4342C20.4633 23.1778 20.4633 22.7624 20.7196 22.5061C20.9759 22.2497 21.3914 22.2497 21.6477 22.5061L22.4163 23.2746L22.4162 23.2747Z" fill="black"/>
</g>
</g>
<defs>
<clipPath id="clip0_973_22669">
<rect width="28" height="28" fill="white"/>
</clipPath>
<clipPath id="clip1_973_22669">
<rect width="28" height="28" fill="white"/>
</clipPath>
</defs>
</svg>
