<svg width="28" height="28" viewBox="0 0 28 28" fill="none" xmlns="http://www.w3.org/2000/svg">
<path d="M19.4123 7.24217C20.0319 6.92057 20.7357 6.73877 21.482 6.73877C23.9664 6.73877 25.9804 8.75277 25.9804 11.2372C25.9804 13.7216 23.9664 15.7356 21.482 15.7356C19.5717 15.7356 17.9395 14.5448 17.2871 12.865" stroke="#272932" stroke-miterlimit="10" stroke-linecap="round" stroke-linejoin="round"/>
<path d="M12.0456 25.21H1V21.2585C1 18.2083 3.47267 15.7357 6.52277 15.7357C7.30903 15.7357 8.05691 15.9 8.73394 16.1961" stroke="#272932" stroke-miterlimit="10" stroke-linecap="round" stroke-linejoin="round"/>
<path d="M10.7101 12.8869C10.0522 14.5553 8.42585 15.7357 6.52379 15.7357C4.03939 15.7357 2.02539 13.7217 2.02539 11.2373C2.02539 8.75289 4.03939 6.73889 6.52379 6.73889C7.27016 6.73889 7.97399 6.92062 8.59358 7.2423" stroke="#272932" stroke-miterlimit="10" stroke-linecap="round" stroke-linejoin="round"/>
<path d="M14.0028 13.818C16.9901 13.818 19.4118 11.3963 19.4118 8.40901C19.4118 5.4217 16.9901 3 14.0028 3C11.0154 3 8.59375 5.4217 8.59375 8.40901C8.59375 11.3963 11.0154 13.818 14.0028 13.818Z" stroke="#272932" stroke-miterlimit="10" stroke-linecap="round" stroke-linejoin="round"/>
<path d="M19.3368 16.1697C19.9976 15.8902 20.724 15.7357 21.4865 15.7357C24.5367 15.7357 27.0093 18.2083 27.0093 21.2584V25.21H20.6486V20.4586C20.6486 16.791 17.6755 13.8179 14.0079 13.8179C10.3403 13.8179 7.36719 16.791 7.36719 20.4586V25.21H13.0041" stroke="#272932" stroke-miterlimit="10" stroke-linecap="round" stroke-linejoin="round"/>
</svg>
