<svg width="28" height="28" viewBox="0 0 28 28" fill="none" xmlns="http://www.w3.org/2000/svg">
<g clip-path="url(#clip0_973_22063)">
<g clip-path="url(#clip1_973_22063)">
<mask id="mask0_973_22063" style="mask-type:luminance" maskUnits="userSpaceOnUse" x="0" y="-1" width="28" height="29">
<path d="M0.00195312 -0.00439835H27.749V27.7427H0.00195312V-0.00439835Z" fill="white"/>
</mask>
<g mask="url(#mask0_973_22063)">
<path d="M14.8082 10.7309C13.8103 10.7309 13.0013 9.92184 13.0013 8.92387C13.0013 7.92595 13.8103 7.11689 14.8082 7.11689C15.8062 7.11689 16.6153 7.92595 16.6153 8.92387C16.6153 9.92184 15.8062 10.7309 14.8082 10.7309ZM19.9103 7.58979C19.2695 7.85279 18.5171 7.60821 18.1613 6.99203C17.8051 6.37558 17.9699 5.60105 18.5188 5.17839C17.8836 4.54888 17.0888 4.08 16.2005 3.83732C16.1098 4.52536 15.5211 5.05613 14.8082 5.05613C14.0957 5.05613 13.5067 4.52536 13.416 3.83732C12.5277 4.08 11.7331 4.54888 11.098 5.17839C11.6466 5.60132 11.8113 6.37558 11.4555 6.99203C11.0996 7.60821 10.347 7.85279 9.70646 7.58979C9.59542 8.01586 9.53613 8.46306 9.53613 8.92387C9.53613 9.38739 9.59591 9.83698 9.70836 10.2652C10.3485 10.003 11.0998 10.2479 11.4555 10.8638C11.8103 11.4787 11.6477 12.2503 11.1025 12.674C11.7371 13.3014 12.5306 13.7689 13.417 14.0107C13.511 13.3267 14.0983 12.7997 14.8082 12.7997C15.5184 12.7997 16.1055 13.3267 16.1995 14.0107C17.0862 13.7689 17.8797 13.3014 18.5143 12.674C17.9691 12.2503 17.8062 11.4787 18.1613 10.8638C18.5169 10.2479 19.2679 10.003 19.9084 10.2652C20.0208 9.83698 20.0806 9.38739 20.0806 8.92387C20.0806 8.46306 20.0213 8.01586 19.9103 7.58979Z" stroke="black" stroke-width="1.08387" stroke-miterlimit="10" stroke-linecap="round" stroke-linejoin="round"/>
<path d="M7.32863 23.2179H4.64551L4.64556 16.0269H10.3443L15.8698 18.3139C16.8363 18.714 17.2917 19.8251 16.8838 20.7884L16.8651 20.8326C16.454 21.8036 15.357 22.2692 14.3821 21.8932C12.8141 21.2884 10.7577 20.4978 10.7577 20.4978L16.0525 22.5333C17.1692 22.9627 18.3886 23.0494 19.5549 22.7824L24.9795 21.5404C25.9735 21.3128 26.9606 21.946 27.1681 22.9444C27.3664 23.8983 26.7785 24.8392 25.8341 25.0792L19.3615 26.7242C18.1412 27.0344 16.8543 26.9539 15.682 26.4942L11.851 24.9916" stroke="black" stroke-width="1.08387" stroke-miterlimit="10" stroke-linecap="round" stroke-linejoin="round"/>
<path d="M4.6452 24.2747H0.542969V14.7487H4.64525L4.6452 24.2747Z" stroke="black" stroke-width="1.08387" stroke-miterlimit="10" stroke-linecap="round" stroke-linejoin="round"/>
<path d="M20.4696 14.7798C21.2119 14.0475 21.8253 13.1598 22.2546 12.1387C23.9988 7.99015 22.0497 3.21316 17.9012 1.46905C13.7528 -0.275171 8.97571 1.6739 7.23155 5.82236C6.46244 7.65166 6.41187 9.603 6.95088 11.3627" stroke="black" stroke-width="1.08387" stroke-miterlimit="10" stroke-linecap="round" stroke-linejoin="round"/>
<path d="M5.49805 10.7806L7.02582 11.6809L8.03528 10.2077" stroke="black" stroke-width="1.08387" stroke-miterlimit="10" stroke-linecap="round" stroke-linejoin="round"/>
</g>
</g>
</g>
<defs>
<clipPath id="clip0_973_22063">
<rect width="28" height="28" fill="white"/>
</clipPath>
<clipPath id="clip1_973_22063">
<rect width="27.7471" height="27.7471" fill="white" transform="translate(0 -0.00366211)"/>
</clipPath>
</defs>
</svg>
