<svg width="28" height="28" viewBox="0 0 28 28" fill="none" xmlns="http://www.w3.org/2000/svg">
<g clip-path="url(#clip0_973_21783)">
<g clip-path="url(#clip1_973_21783)">
<path d="M24.6683 15.1623V6.53667C26.1581 6.32202 27.3075 5.04071 27.3075 3.49284C27.3075 1.79542 25.9263 0.413818 24.2285 0.413818C22.5306 0.413818 21.1494 1.79542 21.1494 3.49284H0.0361328V21.0873H13.2544C13.4831 24.7627 16.5379 27.6852 20.2697 27.6852C24.1502 27.6852 27.3075 24.5278 27.3075 20.6474C27.3075 18.4309 26.2751 16.4533 24.6683 15.1623ZM24.2285 1.29354C25.4411 1.29354 26.4278 2.28015 26.4278 3.49284C26.4278 4.70554 25.4411 5.69214 24.2285 5.69214C23.0158 5.69214 22.0292 4.70554 22.0292 3.49284C22.0292 2.28015 23.0158 1.29354 24.2285 1.29354ZM0.915854 4.37256H21.2792C21.3843 4.72357 21.5515 5.04687 21.7661 5.33366L19.0759 8.02384C18.9035 7.94115 18.7135 7.89144 18.5103 7.89144C18.3071 7.89144 18.117 7.94115 17.945 8.02384L17.0587 7.13752C17.141 6.9651 17.1907 6.77508 17.1907 6.57186C17.1907 5.84433 16.5986 5.25228 15.8711 5.25228C15.1436 5.25228 14.5515 5.84433 14.5515 6.57186C14.5515 6.77508 14.6012 6.9651 14.6839 7.13708L12.478 9.34298C12.3056 9.26073 12.1156 9.21103 11.9124 9.21103C11.1848 9.21103 10.5928 9.80308 10.5928 10.5306C10.5928 11.2581 11.1848 11.8502 11.9124 11.8502C12.6399 11.8502 13.2319 11.2581 13.2319 10.5306C13.2319 10.3274 13.1822 10.1374 13.0995 9.96539L15.3054 7.75949C15.4779 7.84174 15.6679 7.89144 15.8711 7.89144C16.0743 7.89144 16.2643 7.84174 16.4363 7.75905L17.3226 8.64537C17.2404 8.81779 17.1907 9.00781 17.1907 9.21103C17.1907 9.93855 17.7827 10.5306 18.5103 10.5306C19.2378 10.5306 19.8298 9.93855 19.8298 9.21103C19.8298 9.00781 19.7801 8.81779 19.6975 8.6458L22.3881 5.95562C22.7905 6.25736 23.2682 6.4619 23.7886 6.53711V14.5624C22.7518 13.9602 21.5523 13.6096 20.2697 13.6096C18.1672 13.6096 16.2819 14.5413 14.9914 16.0082V14.0495H12.3522V19.3278H13.3604C13.3058 19.615 13.2729 19.9093 13.2544 20.2075H0.915854V4.37256ZM18.5103 8.77116C18.7526 8.77116 18.9501 8.96822 18.9501 9.21103C18.9501 9.45383 18.7526 9.65089 18.5103 9.65089C18.2679 9.65089 18.0704 9.45383 18.0704 9.21103C18.0704 8.96822 18.2679 8.77116 18.5103 8.77116ZM15.4312 6.57186C15.4312 6.32906 15.6287 6.132 15.8711 6.132C16.1135 6.132 16.311 6.32906 16.311 6.57186C16.311 6.81467 16.1135 7.01172 15.8711 7.01172C15.6287 7.01172 15.4312 6.81467 15.4312 6.57186ZM12.3522 10.5306C12.3522 10.7734 12.1547 10.9705 11.9124 10.9705C11.67 10.9705 11.4725 10.7734 11.4725 10.5306C11.4725 10.2878 11.67 10.0907 11.9124 10.0907C12.1547 10.0907 12.3522 10.2878 12.3522 10.5306ZM20.2697 24.1663C18.3295 24.1663 16.7508 22.5876 16.7508 20.6474C16.7508 18.7072 18.3295 17.1285 20.2697 17.1285C22.2099 17.1285 23.7886 18.7072 23.7886 20.6474C23.7886 22.5876 22.2099 24.1663 20.2697 24.1663ZM14.1117 17.2477C13.901 17.6278 13.7268 18.0293 13.5887 18.4481H13.2319V14.9292H14.1117V17.2477ZM19.8298 14.5118V16.2712C17.6103 16.4929 15.8711 18.3707 15.8711 20.6474C15.8711 21.2909 16.0136 21.901 16.263 22.4526L14.7371 23.3336C14.3404 22.5208 14.1117 21.6111 14.1117 20.6474C14.1117 17.4003 16.6395 14.7387 19.8298 14.5118ZM20.2697 26.8054C18.1522 26.8054 16.2811 25.7309 15.1726 24.0981L16.7046 23.2135C17.5043 24.3211 18.8023 25.046 20.2697 25.046C21.7371 25.046 23.0351 24.3211 23.8348 23.2135L25.3668 24.0981C24.2584 25.7309 22.3872 26.8054 20.2697 26.8054ZM25.8023 23.3336L24.2764 22.4526C24.5258 21.901 24.6683 21.2909 24.6683 20.6474C24.6683 18.3707 22.9291 16.4925 20.7096 16.2712V14.5118C23.8999 14.7387 26.4278 17.4003 26.4278 20.6474C26.4278 21.6111 26.199 22.5208 25.8023 23.3336Z" fill="black"/>
<path d="M20.27 18.0083C18.8145 18.0083 17.6309 19.192 17.6309 20.6475C17.6309 22.103 18.8145 23.2866 20.27 23.2866C21.7255 23.2866 22.9092 22.103 22.9092 20.6475C22.9092 19.192 21.7255 18.0083 20.27 18.0083ZM20.27 22.4069C19.2997 22.4069 18.5106 21.6178 18.5106 20.6475C18.5106 19.6771 19.2997 18.888 20.27 18.888C21.2404 18.888 22.0295 19.6771 22.0295 20.6475C22.0295 21.6178 21.2404 22.4069 20.27 22.4069Z" fill="black"/>
<path d="M1.7959 5.25171H2.67562V6.13143H1.7959V5.25171Z" fill="black"/>
<path d="M3.55469 5.25171H9.71273V6.13143H3.55469V5.25171Z" fill="black"/>
<path d="M1.7959 7.01123H2.67562V7.89095H1.7959V7.01123Z" fill="black"/>
<path d="M3.55469 7.01123H9.71273V7.89095H3.55469V7.01123Z" fill="black"/>
<path d="M1.7959 8.77075H2.67562V9.65047H1.7959V8.77075Z" fill="black"/>
<path d="M3.55469 8.77075H9.71273V9.65047H3.55469V8.77075Z" fill="black"/>
<path d="M1.7959 10.53H2.67562V11.4098H1.7959V10.53Z" fill="black"/>
<path d="M3.55469 10.53H9.71273V11.4098H3.55469V10.53Z" fill="black"/>
<path d="M1.7959 19.3271H4.43506V14.9285H1.7959V19.3271ZM2.67562 15.8082H3.55534V18.4474H2.67562V15.8082Z" fill="black"/>
<path d="M5.31445 19.3272H7.95362V15.8083H5.31445V19.3272ZM6.19417 16.6881H7.07389V18.4475H6.19417V16.6881Z" fill="black"/>
<path d="M8.83301 19.3273H11.4722V12.2896H8.83301V19.3273ZM9.71273 13.1693H10.5924V18.4476H9.71273V13.1693Z" fill="black"/>
</g>
</g>
<defs>
<clipPath id="clip0_973_21783">
<rect width="28" height="28" fill="white"/>
</clipPath>
<clipPath id="clip1_973_21783">
<rect width="28.1511" height="28.1511" fill="white" transform="translate(-0.40332 -0.0263672)"/>
</clipPath>
</defs>
</svg>
