<svg width="28" height="28" viewBox="0 0 28 28" fill="none" xmlns="http://www.w3.org/2000/svg">
<g clip-path="url(#clip0_2162_51271)">
<path d="M7.65625 9.84375C8.86437 9.84375 9.84375 8.86437 9.84375 7.65625C9.84375 6.44813 8.86437 5.46875 7.65625 5.46875C6.44813 5.46875 5.46875 6.44813 5.46875 7.65625C5.46875 8.86437 6.44813 9.84375 7.65625 9.84375Z" stroke="#272932" stroke-miterlimit="10" stroke-linecap="round" stroke-linejoin="round"/>
<path d="M7.65625 18.1562L2.40237 11.5846C1.58085 10.4886 1.09375 9.12827 1.09375 7.65625C1.09375 4.03747 4.03747 1.09375 7.65625 1.09375C11.275 1.09375 14.2188 4.03747 14.2188 7.65625C14.2188 9.12827 13.7316 10.4886 12.9101 11.5846L7.65625 18.1562Z" stroke="#272932" stroke-miterlimit="10" stroke-linecap="round" stroke-linejoin="round"/>
<circle cx="22.5312" cy="18.1562" r="0.75" fill="#272932"/>
<path d="M22.5312 26.9062H3.28125C2.07315 26.9062 1.09375 25.9269 1.09375 24.7187C1.09375 23.5106 2.07315 22.5312 3.28125 22.5312H12.0312C13.2394 22.5312 14.2187 21.5519 14.2187 20.3437C14.2187 19.1356 13.2394 18.1562 12.0312 18.1562H7.65625" stroke="#272932" stroke-miterlimit="10" stroke-linecap="round" stroke-linejoin="round"/>
<path d="M22.5312 26.9062L18.7399 20.341C18.3687 19.6981 18.1562 18.952 18.1562 18.1562C18.1562 15.74 20.115 13.7812 22.5312 13.7812C24.9475 13.7812 26.9062 15.74 26.9062 18.1562C26.9062 18.952 26.6938 19.6981 26.3226 20.341L22.5312 26.9062Z" stroke="#272932" stroke-miterlimit="10" stroke-linecap="round" stroke-linejoin="round"/>
</g>
<defs>
<clipPath id="clip0_2162_51271">
<rect width="28" height="28" fill="white"/>
</clipPath>
</defs>
</svg>
