<svg width="28" height="28" viewBox="0 0 28 28" fill="none" xmlns="http://www.w3.org/2000/svg">
<g clip-path="url(#clip0_973_21866)">
<path d="M23.8913 6.33974C23.8913 8.73803 19.1698 10.6821 13.3455 10.6821C7.52133 10.6821 2.7998 8.73803 2.7998 6.33974C2.7998 3.94152 7.52133 1.99742 13.3455 1.99742C19.1698 1.99742 23.8913 3.94152 23.8913 6.33974Z" stroke="black" stroke-width="1.24647" stroke-miterlimit="10" stroke-linecap="round" stroke-linejoin="round"/>
<path d="M23.8915 6.19468V12.1502C23.8915 12.6205 23.7099 13.0734 23.3739 13.4976M13.3457 16.4924C7.52158 16.4924 2.7998 14.5482 2.7998 12.1502V10.9336" stroke="black" stroke-width="1.24647" stroke-miterlimit="10" stroke-linecap="round" stroke-linejoin="round"/>
<path d="M2.7998 8.78491V6.19528" stroke="black" stroke-width="1.24647" stroke-miterlimit="10" stroke-linecap="round" stroke-linejoin="round"/>
<path d="M2.7998 14.1344V20.0897C2.7998 22.4023 7.18991 24.2924 12.7246 24.4246" stroke="black" stroke-width="1.24647" stroke-miterlimit="10" stroke-linecap="round" stroke-linejoin="round"/>
<path d="M8.89473 12.5451C8.89473 12.8474 8.64961 13.0925 8.34727 13.0925C8.04492 13.0925 7.7998 12.8474 7.7998 12.5451C7.7998 12.2427 8.04492 11.9976 8.34727 11.9976C8.64961 11.9976 8.89473 12.2427 8.89473 12.5451Z" fill="black"/>
<path d="M5.89468 11.5448C5.89468 11.8472 5.64961 12.0923 5.34721 12.0923C5.04487 12.0923 4.7998 11.8472 4.7998 11.5448C4.7998 11.2425 5.04487 10.9974 5.34721 10.9974C5.64961 10.9974 5.89468 11.2425 5.89468 11.5448Z" fill="black"/>
<path d="M27.2967 19.2451C27.3206 19.4883 27.3334 19.7344 27.3334 19.9842C27.3334 23.9972 24.0798 27.2507 20.0669 27.2507C16.0534 27.2507 12.7998 23.9972 12.7998 19.9842C12.7998 15.9707 16.0534 12.7171 20.0669 12.7171C23.0811 12.7171 25.6671 14.5531 26.7676 17.168" stroke="black" stroke-width="1.24299" stroke-miterlimit="10" stroke-linecap="round" stroke-linejoin="round"/>
<path d="M22.0781 22.1716L22.6031 21.6468C23.0862 21.1635 23.0862 20.3802 22.6031 19.897L22.0781 19.3721L23.8096 17.6406C24.1962 17.2541 24.1962 16.6274 23.8096 16.2409C23.4231 15.8544 22.7964 15.8544 22.4098 16.2409L20.6784 17.9724L20.1535 17.4475C19.6703 16.9643 18.8869 16.9644 18.4038 17.4475L17.8789 17.9724" stroke="black" stroke-width="1.24299" stroke-miterlimit="10" stroke-linecap="round" stroke-linejoin="round"/>
<path d="M18.4941 24.8661L15.1857 21.5577C14.6347 21.0067 14.7241 20.0895 15.3712 19.6554L17.8803 17.9723L22.0795 22.1715L20.3964 24.6805C19.9623 25.3276 19.0452 25.4171 18.4941 24.8661Z" stroke="black" stroke-width="1.24299" stroke-miterlimit="10" stroke-linecap="round" stroke-linejoin="round"/>
<path d="M18.7567 22.6935L17.5381 23.9121" stroke="black" stroke-width="1.24299" stroke-miterlimit="10" stroke-linecap="round" stroke-linejoin="round"/>
<path d="M16.1406 22.5112L17.3592 21.2927" stroke="black" stroke-width="1.24299" stroke-miterlimit="10" stroke-linecap="round" stroke-linejoin="round"/>
</g>
<defs>
<clipPath id="clip0_973_21866">
<rect width="28" height="28" fill="white"/>
</clipPath>
</defs>
</svg>
