<svg width="28" height="28" viewBox="0 0 28 28" fill="none" xmlns="http://www.w3.org/2000/svg">
<g clip-path="url(#clip0_973_22673)">
<g clip-path="url(#clip1_973_22673)">
<path d="M20.1666 22.0387C21.203 22.0387 22.0431 21.1986 22.0431 20.1622C22.0431 19.1258 21.203 18.2856 20.1666 18.2856C19.1302 18.2856 18.29 19.1258 18.29 20.1622C18.29 21.1986 19.1302 22.0387 20.1666 22.0387Z" stroke="black" stroke-width="1.4" stroke-miterlimit="10" stroke-linecap="round" stroke-linejoin="round"/>
<path d="M25.5252 20.1621C25.5252 19.8526 25.4986 19.5494 25.4483 19.2542L27.1795 18.2065L25.472 15.1762L23.6786 16.1146C23.1811 15.6825 22.6029 15.3408 21.9699 15.1145L21.9055 13.0393H18.4273L18.3629 15.1145C17.7298 15.3408 17.1517 15.6825 16.6541 16.1146L14.8608 15.1762L13.1533 18.2065L14.8846 19.2542C14.8342 19.5493 14.8076 19.8526 14.8076 20.1621C14.8076 20.4717 14.8342 20.7749 14.8846 21.0701L13.1533 22.1178L14.8608 25.1481L16.6541 24.2097C17.1526 24.6426 17.7318 24.9847 18.3661 25.2109L18.4273 27.1796H21.9055L21.9666 25.2109C22.6009 24.9846 23.1802 24.6426 23.6786 24.2097L25.472 25.1481L27.1795 22.1178L25.4483 21.0701C25.4986 20.7749 25.5252 20.4717 25.5252 20.1621Z" stroke="black" stroke-width="1.4" stroke-miterlimit="10" stroke-linecap="round" stroke-linejoin="round"/>
<path d="M24.2303 15.8256V0.820312H0.820312V16.3509H3.6015V19.5329L8.04623 16.3288H14.2051" stroke="black" stroke-width="1.4" stroke-miterlimit="10" stroke-linecap="round" stroke-linejoin="round"/>
<path d="M6.26074 7.32446V9.68357" stroke="black" stroke-width="1.4" stroke-miterlimit="10" stroke-linecap="round" stroke-linejoin="round"/>
<path d="M9.39453 5.60132V11.407" stroke="black" stroke-width="1.4" stroke-miterlimit="10" stroke-linecap="round" stroke-linejoin="round"/>
<path d="M12.5273 7.32446V9.68357" stroke="black" stroke-width="1.4" stroke-miterlimit="10" stroke-linecap="round" stroke-linejoin="round"/>
<path d="M15.6602 6.41553V10.5928" stroke="black" stroke-width="1.4" stroke-miterlimit="10" stroke-linecap="round" stroke-linejoin="round"/>
<path d="M18.7939 7.97803V9.03038" stroke="black" stroke-width="1.4" stroke-miterlimit="10" stroke-linecap="round" stroke-linejoin="round"/>
</g>
</g>
<defs>
<clipPath id="clip0_973_22673">
<rect width="28" height="28" fill="white"/>
</clipPath>
<clipPath id="clip1_973_22673">
<rect width="28" height="28" fill="white"/>
</clipPath>
</defs>
</svg>
