<svg width="28" height="28" viewBox="0 0 28 28" fill="none" xmlns="http://www.w3.org/2000/svg">
<g clip-path="url(#clip0_1975_63109)">
<path d="M7.20751 22.4086L4.61925 18.9252C4.1583 18.2084 4.4005 17.2469 5.15431 16.8013C5.87655 16.3743 6.80184 16.5809 7.2435 17.2678L10.0033 21.018C10.708 22.1139 10.849 23.4788 10.3855 24.7146L9.16235 27.1232H4.20001L5.07465 25.1964L1.03711 19.7583V8.05603H2.06791C3.33666 8.05603 4.36522 9.08454 4.36522 10.3533V18.2242" stroke="#272932" stroke-width="1.03704" stroke-miterlimit="10"/>
<path d="M20.8883 22.581L23.4765 19.0976C23.9375 18.3807 23.6953 17.4193 22.9415 16.9736C22.2192 16.5467 21.2939 16.7533 20.8523 17.4402L18.0924 21.1904C17.3878 22.2862 17.2468 23.6512 17.7103 24.8869L18.9334 27.2956H23.8958L23.0211 25.3688L27.0587 19.9305V8.22839H26.0279C24.7592 8.22839 23.7306 9.2569 23.7306 10.5257V18.3965" stroke="#272932" stroke-width="1.03704" stroke-miterlimit="10"/>
<path d="M16.3144 15.9719L13.8322 17.3903L11.3501 15.9719C8.95236 14.6018 7.47266 12.052 7.47266 9.29047V2.55491L13.8322 1.03699L20.1918 2.55486V9.29047C20.1918 12.052 18.712 14.6018 16.3144 15.9719Z" stroke="#272932" stroke-width="1.03704" stroke-miterlimit="10"/>
<path d="M10.9961 8.37697L12.8985 10.2794L17.0005 6.17737" stroke="#272932" stroke-width="1.03704" stroke-miterlimit="10"/>
</g>
<defs>
<clipPath id="clip0_1975_63109">
<rect width="28" height="28" fill="white"/>
</clipPath>
</defs>
</svg>
