<svg width="28" height="28" viewBox="0 0 28 28" fill="none" xmlns="http://www.w3.org/2000/svg">
<g clip-path="url(#clip0_973_22675)">
<g clip-path="url(#clip1_973_22675)">
<path d="M13.9186 5.74219H15.5592V0.921867C15.0217 0.855094 14.4742 0.820312 13.9186 0.820312C13.363 0.820312 12.8155 0.855094 12.278 0.921867L11.4577 2.72486C10.702 2.88903 9.97405 3.12714 9.28159 3.43137L7.55877 2.4552C7.08463 2.71715 6.62132 3.01077 6.17179 3.33736C5.72231 3.66395 5.29985 4.0139 4.90419 4.38386L5.30089 6.3274C4.79448 6.89577 4.34348 7.51445 3.95634 8.17523L1.98759 8.3983C1.75802 8.88891 1.55573 9.39881 1.38406 9.92726C1.21234 10.4557 1.07628 10.9871 0.973633 11.5189L2.43592 12.8572C2.39895 13.2332 2.37965 13.6143 2.37965 14C2.37965 14.3857 2.39895 14.7668 2.43592 15.1428L0.973633 16.4811C1.07628 17.0129 1.21234 17.5444 1.38406 18.0728C1.55578 18.6012 1.75802 19.1111 1.98759 19.6018L3.95634 19.8248C4.34353 20.4856 4.79448 21.1042 5.30089 21.6727L4.90419 23.6162C5.29985 23.9862 5.72231 24.3361 6.17179 24.6627C6.62127 24.9893 7.08463 25.2829 7.55877 25.5449L9.28159 24.5687C9.97405 24.873 10.702 25.111 11.4577 25.2752L12.278 27.0782C12.8155 27.145 13.363 27.1797 13.9186 27.1797C14.4742 27.1797 15.0217 27.145 15.5592 27.0782V22.2578H13.9186C9.35794 22.2578 5.66079 18.5607 5.66079 14C5.66079 9.43934 9.35794 5.74219 13.9186 5.74219Z" stroke="black" stroke-width="1.3" stroke-miterlimit="10"/>
<path d="M21.7119 21.3828C22.618 21.3828 23.3525 20.6483 23.3525 19.7422C23.3525 18.8361 22.618 18.1016 21.7119 18.1016C20.8058 18.1016 20.0713 18.8361 20.0713 19.7422C20.0713 20.6483 20.8058 21.3828 21.7119 21.3828Z" stroke="black" stroke-width="1.3" stroke-miterlimit="10"/>
<path d="M21.7119 9.89844C22.618 9.89844 23.3525 9.1639 23.3525 8.25781C23.3525 7.35172 22.618 6.61719 21.7119 6.61719C20.8058 6.61719 20.0713 7.35172 20.0713 8.25781C20.0713 9.1639 20.8058 9.89844 21.7119 9.89844Z" stroke="black" stroke-width="1.3" stroke-miterlimit="10"/>
<path d="M25.458 15.6406C26.3641 15.6406 27.0986 14.9061 27.0986 14C27.0986 13.0939 26.3641 12.3594 25.458 12.3594C24.5519 12.3594 23.8174 13.0939 23.8174 14C23.8174 14.9061 24.5519 15.6406 25.458 15.6406Z" stroke="black" stroke-width="1.3" stroke-miterlimit="10"/>
<path d="M8.94238 14H23.8174" stroke="black" stroke-width="1.3" stroke-miterlimit="10"/>
<path d="M10.1777 17.2812H15.7374L17.3781 19.7422H20.0714" stroke="black" stroke-width="1.3" stroke-miterlimit="10"/>
<path d="M20.0714 8.25781H17.3781L15.7374 10.7188H10.1777" stroke="black" stroke-width="1.3" stroke-miterlimit="10"/>
<path d="M11.4128 6.12988V7.43757C11.4128 8.69473 10.9465 9.84284 10.1776 10.7188C9.40876 11.5948 8.94238 12.7429 8.94238 14.0001C8.94238 15.2572 9.40876 16.4053 10.1776 17.2813C10.9465 18.1573 11.4128 19.3054 11.4128 20.5626V21.8703" stroke="black" stroke-width="1.3" stroke-miterlimit="10"/>
<path d="M18.0205 24.5686H19.6611" stroke="black" stroke-width="1.3" stroke-miterlimit="10"/>
<path d="M18.0205 3.4314H19.6611" stroke="black" stroke-width="1.3" stroke-miterlimit="10"/>
</g>
</g>
<defs>
<clipPath id="clip0_973_22675">
<rect width="28" height="28" fill="white"/>
</clipPath>
<clipPath id="clip1_973_22675">
<rect width="28" height="28" fill="white"/>
</clipPath>
</defs>
</svg>
