<svg width="24" height="25" viewBox="0 0 24 25" fill="none" xmlns="http://www.w3.org/2000/svg">
<rect y="0.25" width="24" height="24" rx="12" fill="#0066C8"/>
<g clip-path="url(#clip0_2170_34430)">
<path d="M5 7.11777C5 6.66732 5.15766 6.29569 5.47297 6.00291C5.78828 5.71011 6.1982 5.56372 6.7027 5.56372C7.1982 5.56372 7.59909 5.70786 7.90541 5.99615C8.22072 6.29345 8.37838 6.68083 8.37838 7.15832C8.37838 7.59075 8.22523 7.9511 7.91892 8.2394C7.60361 8.53669 7.18919 8.68534 6.67568 8.68534H6.66216C6.16666 8.68534 5.76577 8.53669 5.45946 8.2394C5.15315 7.9421 5 7.56822 5 7.11777ZM5.17568 18.9421V9.91507H8.17568V18.9421H5.17568ZM9.83784 18.9421H12.8378V13.9016C12.8378 13.5862 12.8739 13.343 12.9459 13.1718C13.0721 12.8655 13.2635 12.6065 13.5203 12.3948C13.777 12.1831 14.0991 12.0772 14.4865 12.0772C15.4955 12.0772 16 12.7574 16 14.1178V18.9421H19V13.7664C19 12.4331 18.6847 11.4218 18.0541 10.7326C17.4234 10.0434 16.5901 9.69886 15.5541 9.69886C14.3919 9.69886 13.4865 10.1989 12.8378 11.1989V11.2259H12.8243L12.8378 11.1989V9.91507H9.83784C9.85585 10.2034 9.86486 11.0997 9.86486 12.6043C9.86486 14.1088 9.85585 16.2214 9.83784 18.9421Z" fill="white"/>
</g>
<defs>
<clipPath id="clip0_2170_34430">
<rect x="5" y="5.25" width="14" height="14" fill="white"/>
</clipPath>
</defs>
</svg>
