<svg width="24" height="25" viewBox="0 0 24 25" fill="none" xmlns="http://www.w3.org/2000/svg">
<rect y="0.25" width="24" height="24" rx="12" fill="#1D9BF0"/>
<path d="M9.80481 18.5801C15.1268 18.5801 18.0368 14.1701 18.0368 10.3481C18.0368 10.2221 18.0368 10.0961 18.0308 9.97612C18.5948 9.56812 19.0868 9.05812 19.4768 8.47612C18.9608 8.70412 18.4028 8.86012 17.8148 8.93212C18.4148 8.57212 18.8708 8.00812 19.0868 7.33012C18.5288 7.66012 17.9108 7.90012 17.2508 8.03212C16.7228 7.46812 15.9728 7.12012 15.1388 7.12012C13.5428 7.12012 12.2468 8.41612 12.2468 10.0121C12.2468 10.2401 12.2708 10.4621 12.3248 10.6721C9.91881 10.5521 7.78881 9.40012 6.36081 7.64812C6.11481 8.07412 5.97081 8.57212 5.97081 9.10012C5.97081 10.1021 6.48081 10.9901 7.26081 11.5061C6.78681 11.4941 6.34281 11.3621 5.95281 11.1461C5.95281 11.1581 5.95281 11.1701 5.95281 11.1821C5.95281 12.5861 6.94881 13.7501 8.27481 14.0201C8.03481 14.0861 7.77681 14.1221 7.51281 14.1221C7.32681 14.1221 7.14681 14.1041 6.96681 14.0681C7.33281 15.2201 8.40081 16.0541 9.66681 16.0781C8.67681 16.8521 7.42881 17.3141 6.07281 17.3141C5.83881 17.3141 5.61081 17.3021 5.38281 17.2721C6.64881 18.1001 8.17281 18.5801 9.80481 18.5801Z" fill="white"/>
</svg>
