<svg width="124" height="124" viewBox="0 0 124 124" fill="none" xmlns="http://www.w3.org/2000/svg">
<g clip-path="url(#clip0_2324_62036)">
<path d="M120.32 50.2187L109.309 48.896C108.183 44.6959 106.535 40.7278 104.413 37.0459L111.258 28.3446C112.304 27.0071 112.186 24.9391 110.977 23.7348L99.6301 12.3832C98.4357 11.1838 96.3628 11.0555 95.0203 12.1018L86.3042 18.9573C82.6372 16.835 78.669 15.1865 74.4788 14.0711L73.161 3.06001C72.9586 1.377 71.4039 0 69.7061 0H53.6559C51.9581 0 50.4034 1.377 50.206 3.06001L48.8833 14.0711C44.6881 15.1915 40.715 16.8449 37.0479 18.9622L28.3368 12.1167C27.0042 11.0703 24.9313 11.1937 23.7319 12.393L12.3803 23.7496C11.1859 24.944 11.0625 27.0169 12.1138 28.3594L18.9544 37.0656C16.8321 40.7376 15.1837 44.7107 14.0633 48.9108L3.05713 50.2286C1.37413 50.426 -0.0078125 51.9807 -0.0078125 53.6834V69.7337C-0.0078125 71.4315 1.36919 72.9763 3.05713 73.1836L14.0682 74.5063C15.1935 78.6916 16.8371 82.6598 18.9593 86.3318L12.1187 95.0479C11.0773 96.3854 11.1958 98.4534 12.4 99.6576L23.7319 111.014C24.9313 112.209 27.0042 112.342 28.3368 111.296L37.0529 104.435C40.7249 106.557 44.693 108.211 48.8882 109.326L50.2109 120.332C50.4133 122.02 51.963 123.392 53.6608 123.392H69.7111C71.4138 123.392 72.9636 122.02 73.161 120.332L74.4837 109.326C78.6838 108.201 82.6519 106.553 86.319 104.435L95.0351 111.281C96.3726 112.327 98.4406 112.204 99.6399 111.004L110.987 99.6478C112.191 98.4534 112.314 96.3805 111.263 95.0331L104.413 86.3268C106.54 82.6548 108.183 78.6867 109.309 74.4965L120.315 73.1737C122.003 72.9714 123.38 71.4315 123.38 69.7238V53.6736C123.385 51.9659 122.013 50.4211 120.32 50.2187ZM61.6909 92.5406C44.6535 92.5406 30.844 78.7311 30.844 61.6938C30.844 44.6564 44.6535 30.8469 61.6909 30.8469C78.7282 30.8469 92.5378 44.6564 92.5378 61.6938C92.5378 78.7311 78.7332 92.5406 61.6909 92.5406Z" fill="#236FB3"/>
</g>
<defs>
<clipPath id="clip0_2324_62036">
<rect width="123.388" height="123.392" fill="white"/>
</clipPath>
</defs>
</svg>
