<svg width="62" height="14" viewBox="0 0 62 14" fill="none" xmlns="http://www.w3.org/2000/svg">
<g id="logo" clip-path="url(#clip0_1619_3719)">
<g id="gruppo 1">
<path id="testo 1" d="M18.0785 13.6664L17.1844 12.1888H11.4563L10.6414 13.5935C10.6115 13.6443 10.5627 13.6812 10.5057 13.696C10.4487 13.7108 10.3881 13.7024 10.3373 13.6725C10.2865 13.6427 10.2496 13.5939 10.2348 13.5369C10.22 13.4799 10.2284 13.4193 10.2583 13.3685L11.1158 11.8847C11.1219 11.8613 11.1346 11.8402 11.1523 11.8239L16.3881 2.73277C16.407 2.69946 16.4344 2.67177 16.4676 2.6525C16.5007 2.63323 16.5383 2.62308 16.5766 2.62308C16.6149 2.62308 16.6526 2.63323 16.6857 2.6525C16.7188 2.67177 16.7462 2.69946 16.7652 2.73277L23.15 13.417C23.1649 13.4421 23.1748 13.47 23.1789 13.4989C23.1831 13.5278 23.1814 13.5573 23.174 13.5856C23.1667 13.6139 23.1538 13.6404 23.136 13.6637C23.1183 13.6869 23.0961 13.7064 23.0708 13.721C23.0351 13.7403 22.9953 13.7508 22.9547 13.7514C22.9184 13.75 22.883 13.7391 22.8521 13.7199C22.8212 13.7007 22.7959 13.6738 22.7785 13.6419L16.5825 3.28012L16.2238 3.90042L21.9763 13.4172C21.9926 13.442 22.0038 13.4698 22.0091 13.4989C22.0145 13.5281 22.0139 13.558 22.0074 13.587C22.001 13.6159 21.9888 13.6432 21.9716 13.6674C21.9543 13.6915 21.9324 13.7119 21.9072 13.7274C21.8819 13.7429 21.8538 13.7531 21.8245 13.7575C21.7951 13.7619 21.7652 13.7604 21.7365 13.753C21.7078 13.7456 21.6809 13.7326 21.6573 13.7146C21.6338 13.6966 21.6141 13.674 21.5994 13.6483L15.9744 4.34426L15.6705 4.86665L20.8027 13.4227C20.8321 13.4726 20.8407 13.5322 20.8267 13.5884C20.8127 13.6447 20.7771 13.6932 20.7277 13.7235C20.6782 13.7538 20.6188 13.7634 20.5623 13.7504C20.5058 13.7373 20.4567 13.7026 20.4256 13.6537L15.4211 5.31126L15.0922 5.88299L19.6286 13.4287C19.6444 13.4534 19.6551 13.4811 19.6601 13.51C19.665 13.539 19.6642 13.5686 19.6576 13.5972C19.651 13.6258 19.6387 13.6528 19.6215 13.6767C19.6044 13.7005 19.5827 13.7207 19.5576 13.736C19.5326 13.7513 19.5047 13.7615 19.4757 13.766C19.4467 13.7705 19.4171 13.7691 19.3886 13.762C19.3601 13.7549 19.3333 13.7422 19.3098 13.7246C19.2863 13.707 19.2665 13.685 19.2516 13.6597L14.8428 6.32683L14.5138 6.89856C14.5138 6.90475 14.5198 6.90475 14.5198 6.91056L18.4554 13.4354C18.4853 13.4856 18.4944 13.5455 18.4808 13.6022C18.4671 13.659 18.4319 13.7082 18.3824 13.7394C18.3472 13.76 18.3071 13.7707 18.2664 13.7705C18.2287 13.771 18.1916 13.7616 18.1586 13.7434C18.1257 13.7251 18.0981 13.6986 18.0785 13.6664ZM11.6937 11.7204H16.9049L14.2474 7.31183L11.6937 11.7204ZM57.9277 13.4596V5.42077C57.9277 5.36271 57.9508 5.30703 57.9919 5.26597C58.0329 5.22491 58.0886 5.20185 58.1467 5.20185C58.2047 5.20185 58.2604 5.22491 58.3015 5.26597C58.3425 5.30703 58.3656 5.36271 58.3656 5.42077V13.4598C58.3656 13.5179 58.3425 13.5736 58.3015 13.6146C58.2604 13.6557 58.2047 13.6787 58.1467 13.6787C58.0886 13.6787 58.0329 13.6557 57.9919 13.6146C57.9508 13.5736 57.9277 13.5177 57.9277 13.4596ZM56.9244 13.4596V5.85765C56.9244 5.79958 56.9474 5.7439 56.9885 5.70285C57.0295 5.66179 57.0852 5.63872 57.1433 5.63872C57.2014 5.63872 57.257 5.66179 57.2981 5.70285C57.3391 5.7439 57.3622 5.79958 57.3622 5.85765V13.4598C57.3622 13.5179 57.3391 13.5736 57.2981 13.6146C57.257 13.6557 57.2014 13.6787 57.1433 13.6787C57.0852 13.6787 57.0295 13.6557 56.9885 13.6146C56.9474 13.5736 56.9244 13.5177 56.9244 13.4596ZM56.0059 13.4596V6.10743C56.0076 6.05049 56.0314 5.99646 56.0723 5.95678C56.1132 5.91711 56.1679 5.89492 56.2248 5.89492C56.2818 5.89492 56.3365 5.91711 56.3774 5.95678C56.4183 5.99646 56.4421 6.05049 56.4438 6.10743V13.4596C56.4439 13.4884 56.4383 13.5169 56.4273 13.5435C56.4164 13.5701 56.4002 13.5942 56.3799 13.6146C56.3596 13.6349 56.3354 13.651 56.3088 13.662C56.2822 13.6729 56.2537 13.6785 56.2249 13.6784C56.1671 13.6777 56.1119 13.6544 56.071 13.6136C56.03 13.5728 56.0066 13.5176 56.0057 13.4598L56.0059 13.4596ZM55.0087 13.4596V5.85765C55.0104 5.80071 55.0342 5.74667 55.0751 5.707C55.116 5.66733 55.1707 5.64514 55.2277 5.64514C55.2846 5.64514 55.3393 5.66733 55.3802 5.707C55.4211 5.74667 55.4449 5.80071 55.4466 5.85765V13.4598C55.4467 13.4886 55.4411 13.5171 55.4301 13.5437C55.4191 13.5703 55.403 13.5945 55.3826 13.6148C55.3623 13.6352 55.3381 13.6513 55.3115 13.6622C55.2849 13.6732 55.2563 13.6788 55.2276 13.6786C55.1697 13.6779 55.1145 13.6546 55.0736 13.6137C55.0327 13.5729 55.0093 13.5176 55.0085 13.4598L55.0087 13.4596ZM54.0054 13.4596V5.42077C54.0054 5.36271 54.0284 5.30703 54.0695 5.26597C54.1105 5.22491 54.1662 5.20185 54.2243 5.20185C54.2823 5.20185 54.338 5.22491 54.3791 5.26597C54.4201 5.30703 54.4432 5.36271 54.4432 5.42077V13.4598C54.4433 13.4886 54.4378 13.5171 54.4268 13.5437C54.4159 13.5703 54.3997 13.5945 54.3794 13.6148C54.359 13.6352 54.3349 13.6513 54.3083 13.6622C54.2817 13.6732 54.2531 13.6788 54.2244 13.6786C54.1665 13.678 54.1111 13.6547 54.0702 13.6139C54.0292 13.573 54.0058 13.5177 54.005 13.4598L54.0054 13.4596ZM41.6852 13.4596V2.6962C41.6856 2.65722 41.6959 2.61898 41.715 2.58499C41.7341 2.55101 41.7614 2.52239 41.7945 2.50176C41.8293 2.48373 41.8679 2.47432 41.907 2.47432C41.9462 2.47432 41.9848 2.48373 42.0195 2.50176L51.7606 8.26645V2.7024C51.7606 2.64433 51.7837 2.58865 51.8247 2.5476C51.8658 2.50654 51.9215 2.48347 51.9795 2.48347C52.0376 2.48347 52.0933 2.50654 52.1343 2.5476C52.1754 2.58865 52.1985 2.64433 52.1985 2.7024V13.4536C52.1993 13.4925 52.1899 13.531 52.171 13.565C52.1521 13.599 52.1245 13.6274 52.091 13.6472C52.0575 13.667 52.0193 13.6775 51.9804 13.6777C51.9415 13.6778 51.9032 13.6676 51.8695 13.6481L42.1229 7.94412V13.4598C42.1229 13.5179 42.0998 13.5736 42.0587 13.6146C42.0177 13.6557 41.962 13.6787 41.9039 13.6787C41.8459 13.6787 41.7902 13.6557 41.7491 13.6146C41.7081 13.5736 41.685 13.5179 41.685 13.4598L41.6852 13.4596ZM42.1231 7.42714L51.7606 13.0705V12.4139L42.1229 6.7283L42.1231 7.42714ZM42.1231 6.22313L51.7606 11.9091V11.2097L42.1229 5.52389L42.1231 6.22313ZM42.1231 5.00692L51.7606 10.6929V9.99364L42.1229 4.30788L42.1231 5.00692ZM42.1231 3.79071L51.7606 9.47666V8.77743L42.1229 3.0909L42.1231 3.79071ZM39.4654 13.4598V5.42077C39.4654 5.36271 39.4885 5.30703 39.5296 5.26597C39.5706 5.22491 39.6263 5.20185 39.6844 5.20185C39.7424 5.20185 39.7981 5.22491 39.8392 5.26597C39.8802 5.30703 39.9033 5.36271 39.9033 5.42077V13.4598C39.9033 13.5179 39.8802 13.5736 39.8392 13.6146C39.7981 13.6557 39.7424 13.6787 39.6844 13.6787C39.6263 13.6787 39.5706 13.6557 39.5296 13.6146C39.4885 13.5736 39.4654 13.5179 39.4654 13.4598ZM38.4621 13.4598V5.85765C38.4621 5.79958 38.4851 5.7439 38.5262 5.70285C38.5672 5.66179 38.6229 5.63872 38.681 5.63872C38.739 5.63872 38.7947 5.66179 38.8358 5.70285C38.8768 5.7439 38.8999 5.79958 38.8999 5.85765V13.4598C38.8999 13.5179 38.8768 13.5736 38.8358 13.6146C38.7947 13.6557 38.739 13.6787 38.681 13.6787C38.6229 13.6787 38.5672 13.6557 38.5262 13.6146C38.4851 13.5736 38.4621 13.5179 38.4621 13.4598ZM37.5438 13.4598V6.10762C37.5438 6.04956 37.5669 5.99388 37.6079 5.95282C37.649 5.91176 37.7047 5.8887 37.7627 5.8887C37.8208 5.8887 37.8765 5.91176 37.9175 5.95282C37.9586 5.99388 37.9816 6.04956 37.9816 6.10762V13.4598C37.9817 13.4886 37.9762 13.5171 37.9652 13.5437C37.9542 13.5703 37.9381 13.5944 37.9178 13.6148C37.8974 13.6351 37.8733 13.6512 37.8467 13.6622C37.8201 13.6731 37.7916 13.6787 37.7628 13.6786C37.705 13.6779 37.6498 13.6546 37.6089 13.6137C37.5679 13.5729 37.5446 13.5176 37.5438 13.4598ZM36.5466 13.4598V5.85765C36.5466 5.79958 36.5697 5.7439 36.6107 5.70285C36.6518 5.66179 36.7075 5.63872 36.7655 5.63872C36.8236 5.63872 36.8793 5.66179 36.9203 5.70285C36.9614 5.7439 36.9845 5.79958 36.9845 5.85765V13.4598C36.9845 13.5179 36.9614 13.5736 36.9203 13.6146C36.8793 13.6557 36.8236 13.6787 36.7655 13.6787C36.7075 13.6787 36.6518 13.6557 36.6107 13.6146C36.5697 13.5736 36.5466 13.5179 36.5466 13.4598ZM35.543 13.4598V5.42077C35.5422 5.39147 35.5472 5.3623 35.5578 5.33498C35.5684 5.30766 35.5844 5.28274 35.6048 5.26171C35.6252 5.24068 35.6497 5.22396 35.6766 5.21254C35.7036 5.20113 35.7327 5.19524 35.762 5.19524C35.7913 5.19524 35.8203 5.20113 35.8473 5.21254C35.8743 5.22396 35.8987 5.24068 35.9191 5.26171C35.9395 5.28274 35.9555 5.30766 35.9661 5.33498C35.9767 5.3623 35.9818 5.39147 35.9809 5.42077V13.4598C35.981 13.4886 35.9754 13.5171 35.9644 13.5437C35.9535 13.5703 35.9374 13.5944 35.917 13.6148C35.8967 13.6351 35.8725 13.6512 35.8459 13.6622C35.8193 13.6731 35.7908 13.6787 35.7621 13.6786C35.7043 13.6778 35.649 13.6545 35.6081 13.6137C35.5672 13.5728 35.5439 13.5176 35.543 13.4598ZM23.7033 13.4598V2.7024C23.7037 2.66341 23.714 2.62517 23.7331 2.59118C23.7522 2.5572 23.7795 2.52858 23.8126 2.50795C23.847 2.48846 23.8858 2.47822 23.9252 2.47822C23.9647 2.47822 24.0035 2.48846 24.0378 2.50795L33.7797 8.26645V2.7024C33.7797 2.64433 33.8027 2.58865 33.8438 2.5476C33.8849 2.50654 33.9405 2.48347 33.9986 2.48347C34.0567 2.48347 34.1123 2.50654 34.1534 2.5476C34.1945 2.58865 34.2175 2.64433 34.2175 2.7024V13.4536C34.2184 13.4925 34.2089 13.531 34.19 13.565C34.1711 13.599 34.1435 13.6274 34.11 13.6472C34.0765 13.667 34.0383 13.6775 33.9994 13.6777C33.9605 13.6778 33.9223 13.6676 33.8886 13.6481L24.1411 7.94412V13.4598C24.1411 13.5179 24.1181 13.5736 24.077 13.6146C24.036 13.6557 23.9803 13.6787 23.9222 13.6787C23.8642 13.6787 23.8085 13.6557 23.7674 13.6146C23.7264 13.5736 23.7033 13.5179 23.7033 13.4598ZM24.1411 7.43953L33.7797 13.0767V12.4261L24.1411 6.7403V7.43953ZM24.1411 6.22332L33.7797 11.9091V11.2097L24.1411 5.52389V6.22332ZM24.1411 5.00711L33.7797 10.6929V9.99364L24.1411 4.30788V5.00711ZM24.1411 3.79091L33.7797 9.47686V8.77743L24.1411 3.0909V3.79091ZM4.4812 13.4598V2.7024C4.48096 2.65185 4.4985 2.60284 4.53076 2.56393C4.56302 2.52502 4.60794 2.4987 4.65765 2.48957C5.30518 2.36658 5.96294 2.30549 6.62204 2.30712C7.61923 2.30712 8.85982 2.4472 9.96651 2.99436C10.5899 3.29673 11.1382 3.7341 11.5716 4.27474C12.0049 4.81538 12.3124 5.44572 12.4719 6.12C12.5881 6.54819 12.6474 6.98984 12.6481 7.43353C12.6481 10.1333 10.38 12.049 7.92938 12.0552C6.83983 12.0523 5.78405 11.6768 4.93742 10.991V13.4598C4.93752 13.4886 4.93193 13.5171 4.92097 13.5437C4.91001 13.5703 4.8939 13.5944 4.87356 13.6148C4.85322 13.6351 4.82905 13.6512 4.80246 13.6622C4.77586 13.6731 4.74736 13.6787 4.7186 13.6786C4.68846 13.6806 4.65824 13.6765 4.62976 13.6664C4.60128 13.6564 4.57514 13.6406 4.55294 13.6202C4.53073 13.5997 4.51292 13.5749 4.50059 13.5474C4.48825 13.5198 4.48166 13.49 4.4812 13.4598ZM5.27794 2.83009C5.13206 2.84828 5.01036 2.86647 4.92523 2.88485V10.4011C5.73139 11.1718 6.80193 11.6047 7.91719 11.6111C10.1422 11.6111 12.1931 9.86594 12.1983 7.43353C12.1973 7.02701 12.1442 6.6223 12.0402 6.22932C11.6449 4.74553 10.7874 3.89422 9.77207 3.38963C8.75669 2.88504 7.58247 2.74496 6.62204 2.74496C6.17267 2.74516 5.72375 2.7736 5.27794 2.83009ZM3.44744 13.4598V2.7024C3.44744 2.64431 3.47052 2.5886 3.51159 2.54753C3.55267 2.50645 3.60837 2.48338 3.66646 2.48338C3.72455 2.48338 3.78026 2.50645 3.82133 2.54753C3.8624 2.5886 3.88548 2.64431 3.88548 2.7024V13.4536C3.88558 13.4824 3.87998 13.5109 3.86901 13.5375C3.85804 13.5641 3.84191 13.5883 3.82155 13.6086C3.80119 13.629 3.777 13.6451 3.75038 13.656C3.72376 13.667 3.69524 13.6726 3.66646 13.6724H3.65563C3.62796 13.6723 3.6006 13.6666 3.57514 13.6558C3.54967 13.645 3.52659 13.6293 3.50723 13.6095C3.48788 13.5897 3.47263 13.5663 3.46237 13.5406C3.45211 13.5149 3.44703 13.4875 3.44744 13.4598ZM2.4075 13.4598V2.7024C2.4075 2.64431 2.43057 2.5886 2.47164 2.54753C2.51272 2.50645 2.56843 2.48338 2.62651 2.48338C2.6846 2.48338 2.74031 2.50645 2.78138 2.54753C2.82246 2.5886 2.84553 2.64431 2.84553 2.7024V13.4536C2.84563 13.4824 2.84004 13.5109 2.82908 13.5375C2.81812 13.5641 2.80201 13.5882 2.78167 13.6086C2.76133 13.6289 2.73716 13.645 2.71057 13.656C2.68397 13.667 2.65547 13.6725 2.62671 13.6724H2.61703C2.56119 13.6716 2.50793 13.6488 2.46873 13.609C2.42953 13.5692 2.40754 13.5157 2.4075 13.4598ZM1.37393 13.4598V2.7024C1.37393 2.64433 1.397 2.58865 1.43805 2.5476C1.47911 2.50654 1.53479 2.48347 1.59285 2.48347C1.65091 2.48347 1.7066 2.50654 1.74765 2.5476C1.78871 2.58865 1.81177 2.64433 1.81177 2.7024V13.4536C1.81188 13.4824 1.80629 13.5109 1.79533 13.5375C1.78437 13.5641 1.76825 13.5882 1.74791 13.6086C1.72757 13.6289 1.70341 13.645 1.67681 13.656C1.65022 13.667 1.62172 13.6725 1.59295 13.6724H1.58192C1.55427 13.6723 1.52692 13.6666 1.50146 13.6558C1.476 13.645 1.45294 13.6293 1.4336 13.6095C1.41426 13.5897 1.39903 13.5663 1.38879 13.5406C1.37855 13.5149 1.3735 13.4875 1.37393 13.4598ZM0.333984 13.4598V2.7024C0.333984 2.64433 0.357049 2.58865 0.398105 2.5476C0.439161 2.50654 0.494844 2.48347 0.552905 2.48347C0.610967 2.48347 0.66665 2.50654 0.707706 2.5476C0.748762 2.58865 0.771827 2.64433 0.771827 2.7024V13.4536C0.771955 13.4824 0.766382 13.5109 0.75543 13.5375C0.744479 13.5641 0.728365 13.5883 0.70802 13.6086C0.687675 13.629 0.663501 13.6451 0.636894 13.656C0.610287 13.667 0.581774 13.6726 0.553002 13.6724C0.524553 13.6733 0.496227 13.6684 0.469699 13.6581C0.443172 13.6478 0.418983 13.6322 0.398562 13.6124C0.378141 13.5926 0.361905 13.5689 0.350813 13.5426C0.33972 13.5164 0.333998 13.4883 0.333984 13.4598ZM59.6352 1.24299C59.6352 1.04213 59.6948 0.845776 59.8064 0.678767C59.9179 0.511757 60.0766 0.381589 60.2621 0.304723C60.4477 0.227857 60.6519 0.207745 60.8489 0.246931C61.0459 0.286117 61.2269 0.382841 61.3689 0.524871C61.5109 0.666901 61.6076 0.847858 61.6468 1.04486C61.686 1.24186 61.6659 1.44606 61.589 1.63163C61.5122 1.8172 61.382 1.97581 61.215 2.0874C61.048 2.19899 60.8516 2.25856 60.6508 2.25856C60.3816 2.2581 60.1235 2.15095 59.9332 1.96059C59.7428 1.77024 59.6357 1.51219 59.6352 1.24299ZM59.8298 1.24299C59.8298 1.40535 59.878 1.56407 59.9682 1.69907C60.0584 1.83407 60.1866 1.93929 60.3366 2.00143C60.4866 2.06356 60.6517 2.07982 60.8109 2.04814C60.9702 2.01647 61.1164 1.93828 61.2313 1.82347C61.3461 1.70866 61.4242 1.56239 61.4559 1.40314C61.4876 1.2439 61.4713 1.07884 61.4092 0.928831C61.3471 0.778825 61.2419 0.650614 61.1069 0.560409C60.9719 0.470204 60.8131 0.422057 60.6508 0.422057C60.4332 0.422313 60.2245 0.508898 60.0707 0.662808C59.9169 0.816718 59.8304 1.02538 59.8302 1.24299H59.8298ZM60.1947 1.79034V0.707825H60.7055C60.9671 0.707825 61.0704 0.84771 61.0704 1.01178C61.0711 1.05058 61.0641 1.08913 61.0497 1.12518C61.0354 1.16124 61.014 1.19409 60.9869 1.22181C60.9597 1.24954 60.9274 1.27159 60.8916 1.28668C60.8559 1.30178 60.8175 1.30961 60.7787 1.30974V1.31593C60.8698 1.3463 60.9123 1.40725 60.9853 1.52875L61.1374 1.78415H60.8636L60.7725 1.61389C60.663 1.40106 60.596 1.3465 60.4743 1.3465H60.4136V1.79034H60.1947ZM60.4136 1.17005H60.6508V1.17546C60.7669 1.17546 60.8394 1.11471 60.8394 1.02339C60.8394 0.926649 60.7665 0.877506 60.6144 0.877506H60.4136V1.17005Z" fill="white"/>
<path id="testo 2" d="M53.9385 3.01276C53.9385 2.56175 54.0722 2.12087 54.3228 1.74587C54.5734 1.37087 54.9295 1.0786 55.3462 0.906003C55.7629 0.73341 56.2214 0.688252 56.6637 0.776239C57.106 0.864226 57.5124 1.08141 57.8313 1.40032C58.1502 1.71923 58.3674 2.12555 58.4554 2.56789C58.5433 3.01023 58.4982 3.46873 58.3256 3.88541C58.153 4.30209 57.8607 4.65823 57.4857 4.9088C57.1107 5.15936 56.6698 5.2931 56.2188 5.2931C55.6141 5.29285 55.0343 5.05251 54.6067 4.62492C54.1791 4.19733 53.9387 3.61747 53.9385 3.01276ZM35.4766 3.01276C35.4766 2.56175 35.6103 2.12087 35.8609 1.74587C36.1114 1.37087 36.4676 1.0786 36.8843 0.906003C37.3009 0.73341 37.7594 0.688252 38.2018 0.776239C38.6441 0.864226 39.0504 1.08141 39.3693 1.40032C39.6883 1.71923 39.9054 2.12555 39.9934 2.56789C40.0814 3.01023 40.0363 3.46873 39.8637 3.88541C39.6911 4.30209 39.3988 4.65823 39.0238 4.9088C38.6488 5.15936 38.2079 5.2931 37.7569 5.2931C37.1522 5.29285 36.5723 5.05251 36.1447 4.62492C35.7172 4.19733 35.4768 3.61747 35.4766 3.01276Z" fill="#E4291B"/>
</g>
</g>
<defs>
<clipPath id="clip0_1619_3719">
<rect width="61.3327" height="13.5431" fill="white" transform="translate(0.333984 0.227905)"/>
</clipPath>
</defs>
</svg>
