<svg width="493" height="370" viewBox="0 0 493 370" fill="none" xmlns="http://www.w3.org/2000/svg">
<circle cx="184.694" cy="307.694" r="61.6938" fill="#236FB3"/>
<g clip-path="url(#clip0_2324_62034)">
<path d="M366.32 173.219L355.309 171.896C354.183 167.696 352.535 163.728 350.413 160.046L357.258 151.345C358.304 150.007 358.186 147.939 356.977 146.735L345.63 135.383C344.436 134.184 342.363 134.056 341.02 135.102L332.304 141.957C328.637 139.835 324.669 138.187 320.479 137.071L319.161 126.06C318.959 124.377 317.404 123 315.706 123H299.656C297.958 123 296.403 124.377 296.206 126.06L294.883 137.071C290.688 138.191 286.715 139.845 283.048 141.962L274.337 135.117C273.004 134.07 270.931 134.194 269.732 135.393L258.38 146.75C257.186 147.944 257.063 150.017 258.114 151.359L264.954 160.066C262.832 163.738 261.184 167.711 260.063 171.911L249.057 173.229C247.374 173.426 245.992 174.981 245.992 176.683V192.734C245.992 194.432 247.369 195.976 249.057 196.184L260.068 197.506C261.194 201.692 262.837 205.66 264.959 209.332L258.119 218.048C257.077 219.385 257.196 221.453 258.4 222.658L269.732 234.014C270.931 235.209 273.004 235.342 274.337 234.296L283.053 227.435C286.725 229.557 290.693 231.211 294.888 232.326L296.211 243.332C296.413 245.02 297.963 246.392 299.661 246.392H315.711C317.414 246.392 318.964 245.02 319.161 243.332L320.484 232.326C324.684 231.201 328.652 229.553 332.319 227.435L341.035 234.281C342.373 235.327 344.441 235.204 345.64 234.004L356.987 222.648C358.191 221.453 358.314 219.38 357.263 218.033L350.413 209.327C352.54 205.655 354.183 201.687 355.309 197.496L366.315 196.174C368.003 195.971 369.38 194.432 369.38 192.724V176.674C369.385 174.966 368.013 173.421 366.32 173.219ZM307.691 215.541C290.654 215.541 276.844 201.731 276.844 184.694C276.844 167.656 290.654 153.847 307.691 153.847C324.728 153.847 338.538 167.656 338.538 184.694C338.538 201.731 324.733 215.541 307.691 215.541Z" fill="#236FB3"/>
</g>
<rect y="123" width="123.388" height="123.388" fill="#AFD0EE"/>
<rect x="35.1094" y="158.11" width="53.167" height="53.167" fill="#1F629E"/>
<rect x="123" width="123.388" height="123.388" fill="#1F629E"/>
<rect x="158.109" y="35.1104" width="53.167" height="53.167" fill="#AFD0EE"/>
<rect x="246" y="246" width="123.388" height="123.388" fill="#AFD0EE"/>
<path d="M308.871 266.44C319.151 266.44 327.5 274.789 327.5 285.068C327.5 295.352 319.151 303.697 308.871 303.697C298.591 303.697 290.242 295.352 290.242 285.068C290.242 274.789 298.591 266.44 308.871 266.44Z" fill="white"/>
<path d="M277.82 343.951V334.746C277.82 317.61 291.733 303.698 308.868 303.698C326.004 303.698 339.916 317.61 339.916 334.746V343.951C331.031 349.903 320.353 353.375 308.868 353.375C297.384 353.375 286.706 349.903 277.82 343.951Z" fill="#236FB3"/>
<g clip-path="url(#clip1_2324_62034)">
<path d="M246.028 141.712C244.157 131.275 217.418 123 184.693 123C151.968 123 125.229 131.275 123.357 141.712H123.242V142.881V169.779V170.949V172.118V197.847V199.017V200.186V228.254H123.357C125.229 238.688 151.97 246.966 184.693 246.966C217.415 246.966 244.157 238.688 246.028 228.254H246.144V200.186V199.017V197.847V172.118V170.949V169.779V142.881V141.712H246.028Z" fill="#424A60"/>
<path d="M184.701 218.898C150.762 218.898 123.25 209.996 123.25 199.017V228.254H123.365C125.237 238.688 151.978 246.966 184.701 246.966C217.423 246.966 244.165 238.688 246.036 228.254H246.151V199.017C246.151 209.996 218.639 218.898 184.701 218.898Z" fill="#01AB7F"/>
<path d="M123.25 197.848V199.017C123.25 198.624 123.296 198.236 123.365 197.848H123.25Z" fill="#01AB7F"/>
<path d="M246.039 197.848C246.108 198.236 246.154 198.624 246.154 199.017V197.848H246.039Z" fill="#01AB7F"/>
<path d="M184.701 190.831C150.762 190.831 123.25 181.928 123.25 170.949V200.186H123.365C125.237 210.621 151.978 218.898 184.701 218.898C217.423 218.898 244.165 210.621 246.036 200.186H246.151V170.949C246.151 181.928 218.639 190.831 184.701 190.831Z" fill="#01946E"/>
<path d="M123.25 169.78V170.949C123.25 170.556 123.296 170.168 123.365 169.78H123.25Z" fill="#236FB3"/>
<path d="M246.039 169.78C246.108 170.168 246.154 170.556 246.154 170.949V169.78H246.039Z" fill="#236FB3"/>
<path d="M184.693 162.763C218.631 162.763 246.144 153.861 246.144 142.881C246.144 131.901 218.631 123 184.693 123C150.755 123 123.242 131.901 123.242 142.881C123.242 153.861 150.755 162.763 184.693 162.763Z" fill="#CDF4ED"/>
<path d="M184.701 162.762C150.762 162.762 123.25 153.86 123.25 142.881V172.118H123.365C125.237 182.552 151.978 190.83 184.701 190.83C217.423 190.83 244.165 182.552 246.036 172.118H246.151V142.881C246.151 153.86 218.639 162.762 184.701 162.762Z" fill="#01AB7F"/>
<path d="M123.25 141.711V142.881C123.25 142.488 123.296 142.1 123.365 141.711H123.25Z" fill="#01AB7F"/>
<path d="M246.039 141.711C246.108 142.1 246.154 142.488 246.154 142.881V141.711H246.039Z" fill="#01AB7F"/>
</g>
<path d="M349.859 61.5834L298.647 0.600768L298.647 122.566L349.859 61.5834Z" fill="#01AB7F"/>
<path d="M298 61.5834L246.788 0.600768L246.788 122.566L298 61.5834Z" fill="#CDF4ED"/>
<path d="M400 61.5834L348.788 0.600768L348.788 122.566L400 61.5834Z" fill="#01AB7F"/>
<g clip-path="url(#clip2_2324_62034)">
<rect width="124" height="28.0882" transform="translate(369 123)" fill="#1F629E"/>
<circle cx="382.541" cy="137.044" r="5.51733" fill="white"/>
<circle cx="397.588" cy="137.044" r="5.51733" fill="white"/>
<rect width="124" height="134.422" transform="translate(369 151.088)" fill="#AFD0EE"/>
<rect x="389.062" y="171.151" width="67.2111" height="8.02521" fill="#1F629E"/>
<rect x="464.297" y="171.151" width="67.2111" height="8.02521" fill="#01AB7F"/>
<rect x="389.062" y="187.202" width="67.2111" height="8.02521" fill="#1F629E"/>
<rect x="464.297" y="187.202" width="23.0725" height="8.02521" fill="#1F629E"/>
<rect x="389.062" y="203.252" width="67.2111" height="8.02521" fill="#1F629E"/>
<rect x="464.297" y="203.252" width="67.2111" height="8.02521" fill="#01AB7F"/>
</g>
<defs>
<clipPath id="clip0_2324_62034">
<rect width="123.388" height="123.392" fill="white" transform="translate(246 123)"/>
</clipPath>
<clipPath id="clip1_2324_62034">
<rect width="123.367" height="123.966" fill="white" transform="translate(123 123)"/>
</clipPath>
<clipPath id="clip2_2324_62034">
<rect width="124" height="123" fill="white" transform="translate(369 123)"/>
</clipPath>
</defs>
</svg>
