<svg width="124" height="124" viewBox="0 0 124 124" fill="none" xmlns="http://www.w3.org/2000/svg">
<g clip-path="url(#clip0_2324_62053)">
<path d="M123.028 18.7118C121.157 8.27529 94.418 0 61.6929 0C28.9678 0 2.22909 8.27529 0.357408 18.7118H0.242188V19.8813V46.7795V47.949V49.1185V74.8472V76.0167V77.1862V105.254H0.357408C2.22909 115.688 28.9704 123.966 61.6929 123.966C94.4154 123.966 121.157 115.688 123.028 105.254H123.144V77.1862V76.0167V74.8472V49.1185V47.949V46.7795V19.8813V18.7118H123.028Z" fill="#424A60"/>
<path d="M61.7007 95.8986C27.762 95.8986 0.25 86.9965 0.25 76.0173V105.255H0.36522C2.23691 115.689 28.9782 123.966 61.7007 123.966C94.4232 123.966 121.165 115.689 123.036 105.255H123.151V76.0173C123.151 86.9965 95.6394 95.8986 61.7007 95.8986Z" fill="#01AB7F"/>
<path d="M0.25 74.8477V76.0171C0.25 75.6242 0.296088 75.2359 0.36522 74.8477H0.25Z" fill="#01AB7F"/>
<path d="M123.039 74.8477C123.108 75.2359 123.154 75.6242 123.154 76.0171V74.8477H123.039Z" fill="#01AB7F"/>
<path d="M61.7007 67.8305C27.762 67.8305 0.25 58.9284 0.25 47.9492V77.1864H0.36522C2.23691 87.6206 28.9782 95.8982 61.7007 95.8982C94.4232 95.8982 121.165 87.6206 123.036 77.1864H123.151V47.9492C123.151 58.9284 95.6394 67.8305 61.7007 67.8305Z" fill="#01946E"/>
<path d="M0.25 46.7795V47.949C0.25 47.5561 0.296088 47.1678 0.36522 46.7795H0.25Z" fill="#236FB3"/>
<path d="M123.039 46.7795C123.108 47.1678 123.154 47.5561 123.154 47.949V46.7795H123.039Z" fill="#236FB3"/>
<path d="M61.6929 39.7626C95.6312 39.7626 123.144 30.8614 123.144 19.8813C123.144 8.90115 95.6312 0 61.6929 0C27.7546 0 0.242188 8.90115 0.242188 19.8813C0.242188 30.8614 27.7546 39.7626 61.6929 39.7626Z" fill="#CDF4ED"/>
<path d="M61.7007 39.7624C27.762 39.7624 0.25 30.8603 0.25 19.8811V49.1183H0.36522C2.23691 59.5525 28.9782 67.8301 61.7007 67.8301C94.4232 67.8301 121.165 59.5525 123.036 49.1183H123.151V19.8811C123.151 30.8603 95.6394 39.7624 61.7007 39.7624Z" fill="#01AB7F"/>
<path d="M0.25 18.7114V19.8809C0.25 19.488 0.296088 19.0997 0.36522 18.7114H0.25Z" fill="#01AB7F"/>
<path d="M123.039 18.7114C123.108 19.0997 123.154 19.488 123.154 19.8809V18.7114H123.039Z" fill="#01AB7F"/>
</g>
<defs>
<clipPath id="clip0_2324_62053">
<rect width="123.367" height="123.966" fill="white"/>
</clipPath>
</defs>
</svg>
